<svg width="13" height="13" viewBox="0 0 13 13" fill="none" xmlns="http://www.w3.org/2000/svg">
<path d="M1.08333 1.08333C1.68164 0.485025 2.65169 0.485025 3.25 1.08333L11.9167 9.75C12.515 10.3483 12.515 11.3184 11.9167 11.9167V11.9167C11.3183 12.515 10.3483 12.515 9.74999 11.9167L1.08333 3.25C0.485023 2.65169 0.485024 1.68164 1.08333 1.08333V1.08333Z" fill="white"/>
<path d="M11.9167 1.08334C12.515 1.68164 12.515 2.65169 11.9167 3.25L3.25001 11.9167C2.6517 12.515 1.68165 12.515 1.08334 11.9167V11.9167C0.485035 11.3184 0.485035 10.3483 1.08334 9.75L9.75 1.08333C10.3483 0.485026 11.3184 0.485028 11.9167 1.08334V1.08334Z" fill="white"/>
</svg>
