<svg width="1367" height="138" viewBox="0 0 1367 138" fill="none" xmlns="http://www.w3.org/2000/svg">
<path opacity="0.3" d="M0.867249 136V1.4407H14.1337V124.25H91.8368V136H0.867249ZM153.053 1.4407H164.235L220.143 136H206.119L188.683 93.9264H128.226L110.98 136H96.7658L153.053 1.4407ZM185.651 83.5028L158.549 16.9813L131.069 83.5028H185.651ZM225.528 67.7727C225.528 59.5601 226.918 51.5371 229.698 43.7036C232.604 35.7438 236.773 28.542 242.206 22.0984C247.639 15.5283 254.335 10.3481 262.295 6.55774C270.255 2.64099 279.289 0.682617 289.396 0.682617C301.399 0.682617 311.633 3.46224 320.099 9.0215C328.69 14.4544 335.008 21.4666 339.051 30.0582L328.627 36.5019C325.721 30.5636 322.057 25.8888 317.635 22.4774C313.213 18.9397 308.475 16.4128 303.421 14.8966C298.493 13.3804 293.566 12.6224 288.638 12.6224C280.552 12.6224 273.414 14.2649 267.223 17.5499C261.032 20.7086 255.788 25.0043 251.492 30.4372C247.323 35.7438 244.164 41.7453 242.016 48.4416C239.869 55.0116 238.795 61.708 238.795 68.5307C238.795 75.9852 240.058 83.1238 242.585 89.9465C245.112 96.7692 248.65 102.834 253.198 108.141C257.747 113.321 263.053 117.49 269.118 120.649C275.309 123.681 282.005 125.197 289.207 125.197C294.261 125.197 299.441 124.313 304.748 122.544C310.054 120.775 314.982 118.059 319.53 114.395C324.205 110.731 327.932 105.993 330.712 100.181L341.704 105.866C338.924 112.563 334.629 118.248 328.817 122.923C323.005 127.598 316.498 131.136 309.296 133.536C302.221 135.937 295.272 137.137 288.449 137.137C279.226 137.137 270.76 135.179 263.053 131.262C255.346 127.219 248.65 121.912 242.964 115.342C237.405 108.646 233.109 101.192 230.077 92.9788C227.044 84.6399 225.528 76.2379 225.528 67.7727ZM459.508 13.1909H411.56V136H398.293V13.1909H350.345V1.4407H459.508V13.1909ZM508.403 1.4407H519.585L575.493 136H561.468L544.033 93.9264H483.576L466.33 136H452.116L508.403 1.4407ZM541 83.5028L513.899 16.9813L486.419 83.5028H541ZM685.183 124.25V136H594.782V1.4407H683.478V13.1909H608.049V61.708H673.812V72.8897H608.049V124.25H685.183ZM864.708 1.4407V136H851.631V73.0792H771.843V136H758.576V1.4407H771.843V61.329H851.631V1.4407H864.708ZM988.896 124.25V136H898.495V1.4407H987.191V13.1909H911.762V61.708H977.525V72.8897H911.762V124.25H988.896ZM1013.42 1.4407L1061.55 119.512L1109.5 1.4407H1123.34L1067.62 136H1055.49L999.581 1.4407H1013.42ZM1233.01 124.25V136H1142.61V1.4407H1231.31V13.1909H1155.88V61.708H1221.64V72.8897H1155.88V124.25H1233.01ZM1299.8 1.4407H1310.98L1366.89 136H1352.86L1335.43 93.9264H1274.97L1257.72 136H1243.51L1299.8 1.4407ZM1332.39 83.5028L1305.29 16.9813L1277.81 83.5028H1332.39Z" fill="white"/>
</svg>
