<svg width="1180" height="189" viewBox="0 0 1180 189" fill="none" xmlns="http://www.w3.org/2000/svg">
<path opacity="0.4" d="M14.3603 151V36.4403H25.6549V140.996H91.8091V151H14.3603ZM143.927 36.4403H153.447L201.045 151H189.105L174.261 115.18H122.79L108.107 151H96.0055L143.927 36.4403ZM171.679 106.306L148.606 49.6711L125.21 106.306H171.679ZM205.63 92.9134C205.63 85.9215 206.813 79.0909 209.18 72.4217C211.654 65.645 215.204 59.5136 219.829 54.0276C224.454 48.4341 230.156 44.0238 236.932 40.7968C243.709 37.4622 251.4 35.7949 260.006 35.7949C270.225 35.7949 278.938 38.1614 286.145 42.8944C293.459 47.5198 298.838 53.4898 302.28 60.8044L293.405 66.2904C290.931 61.2347 287.812 57.2547 284.047 54.3503C280.282 51.3384 276.248 49.1871 271.946 47.8963C267.75 46.6055 263.555 45.9601 259.36 45.9601C252.476 45.9601 246.398 47.3584 241.127 50.1552C235.857 52.8444 231.393 56.5017 227.735 61.1271C224.186 65.645 221.496 70.7544 219.668 76.4555C217.839 82.049 216.925 87.7501 216.925 93.5588C216.925 99.9053 218 105.983 220.152 111.792C222.303 117.6 225.315 122.763 229.187 127.281C233.06 131.692 237.578 135.241 242.741 137.931C248.012 140.512 253.713 141.803 259.844 141.803C264.147 141.803 268.557 141.05 273.075 139.544C277.593 138.038 281.788 135.725 285.661 132.606C289.641 129.486 292.814 125.453 295.18 120.505L304.539 125.345C302.172 131.046 298.515 135.887 293.567 139.867C288.619 143.847 283.079 146.859 276.948 148.902C270.924 150.946 265.008 151.968 259.199 151.968C251.346 151.968 244.139 150.301 237.578 146.966C231.016 143.524 225.315 139.006 220.474 133.413C215.741 127.712 212.084 121.365 209.503 114.373C206.921 107.274 205.63 100.12 205.63 92.9134ZM404.834 46.4441H364.012V151H352.717V46.4441H311.895V36.4403H404.834V46.4441ZM446.461 36.4403H455.981L503.58 151H491.64L476.795 115.18H425.324L410.641 151H398.54L446.461 36.4403ZM474.214 106.306L451.141 49.6711L427.745 106.306H474.214ZM596.967 140.996V151H520.002V36.4403H595.515V46.4441H531.297V87.7501H587.286V97.2699H531.297V140.996H596.967ZM749.809 36.4403V151H738.676V97.4312H670.746V151H659.452V36.4403H670.746V87.4274H738.676V36.4403H749.809ZM855.54 140.996V151H778.575V36.4403H854.087V46.4441H789.869V87.7501H845.858V97.2699H789.869V140.996H855.54ZM876.414 36.4403L917.398 136.962L958.22 36.4403H969.998L922.561 151H912.234L864.636 36.4403H876.414ZM1063.37 140.996V151H986.41V36.4403H1061.92V46.4441H997.704V87.7501H1053.69V97.2699H997.704V140.996H1063.37ZM1120.23 36.4403H1129.75L1177.35 151H1165.41L1150.56 115.18H1099.09L1084.41 151H1072.31L1120.23 36.4403ZM1147.98 106.306L1124.91 49.6711L1101.51 106.306H1147.98Z" fill="#F3EEEC"/>
<path fill-rule="evenodd" clip-rule="evenodd" d="M1072 61.9995H1152.64V168.818H1072V61.9995Z" fill="#E31182"/>
<path fill-rule="evenodd" clip-rule="evenodd" d="M1095.57 89.3633H1129.13V174.515H1095.57V89.3633Z" fill="#181716"/>
<path fill-rule="evenodd" clip-rule="evenodd" d="M1130.83 144.743L1130.32 144.604C1129.39 144.109 1128.7 143.152 1128.16 142.195C1127.86 142.009 1127.44 141.222 1127.27 140.944C1127.2 140.866 1126.72 140.403 1126.84 140.403C1126.83 139.955 1125.2 136.99 1124.89 136.342C1124.67 136.11 1124.74 135.662 1124.47 135.461C1124.46 134.875 1123.68 133.67 1123.42 133.099C1123.36 132.898 1123.31 132.713 1123.17 132.574C1122.8 131.771 1122.35 130.968 1122.01 130.165C1121.67 129.609 1121.36 128.96 1121.11 128.327C1120.22 126.613 1119.5 124.729 1118.92 122.829C1118.79 122.752 1118.68 122.134 1118.56 121.949C1118.57 121.903 1118.57 121.872 1118.59 121.841C1118.22 120.852 1117.96 119.802 1117.62 118.799C1117.41 117.872 1117.03 116.945 1116.78 116.034H1116.69V115.957C1116.7 115.942 1116.73 115.942 1116.76 115.942C1116.39 114.722 1116.02 113.455 1115.73 112.22C1115.51 111.757 1115.29 110.845 1115.25 110.336C1115.19 110.197 1114.83 108.467 1114.78 108.375C1114.36 106.074 1113.79 103.711 1113.75 101.348C1113.71 101.302 1113.71 101.302 1113.53 97.5182C1113.67 97.1631 1113.58 96.5453 1113.53 96.1747C1113.53 95.4952 1113.39 94.1671 1113.7 93.5649C1113.48 92.7618 1113.65 91.8198 1113.7 91.0013C1113.68 90.8624 1113.68 90.8624 1113.88 88.3915C1114.01 88.129 1114.21 87.5885 1114.47 87.4958L1114.61 89.1636C1114.64 89.1636 1114.67 89.1636 1114.71 89.1791C1114.75 89.2717 1114.78 89.3798 1114.83 89.4879C1114.77 89.4725 1114.72 89.4725 1114.66 89.457C1114.74 90.2601 1114.91 91.0786 1114.94 91.897C1114.86 92.453 1114.74 92.9935 1114.72 93.5649C1115.22 95.0783 1115.22 95.0783 1115.22 95.1864C1115.12 95.2327 1115.05 95.279 1114.95 95.3254C1115.06 96.0821 1115.54 96.8388 1115.14 97.5955C1115.15 98.1823 1115.4 98.7228 1115.74 99.1552C1115.76 99.1397 1115.77 99.1397 1115.79 99.1397C1115.68 98.1514 1115.4 97.055 1115.4 96.0512C1115.46 96.1438 1115.49 96.4372 1115.53 96.4527C1115.76 97.7653 1115.88 98.8463 1115.91 98.9235C1115.93 99.881 1115.94 100.854 1116.14 101.78C1116.67 103.479 1117.4 105.147 1117.66 106.938C1117.8 107.201 1117.82 108.328 1118.05 108.483C1119.13 112.868 1121.02 117.038 1122.44 121.269C1122.58 121.841 1122.89 122.366 1123.09 122.922C1123.78 124.265 1124.16 125.841 1125 127.091C1125.01 127.076 1125.03 127.045 1125.06 127.03C1125.08 127.462 1125.65 128.219 1125.88 128.636C1125.94 128.667 1125.94 128.667 1126.31 129.346H1126.42C1126.44 129.408 1126.44 129.408 1126.39 129.47C1126.64 129.933 1126.95 130.396 1127.15 130.89H1127.24C1127.26 131.246 1127.66 132.033 1127.82 132.373C1128.03 133.13 1128.19 133.902 1128.25 134.72C1128.4 135.245 1128.4 135.245 1128.53 135.554C1128.54 135.57 1128.57 135.57 1128.59 135.585C1128.61 135.94 1128.93 136.79 1129.24 136.913C1129.22 136.913 1129.21 136.929 1129.18 136.929C1129.21 137.176 1129.78 137.793 1129.89 137.917C1129.95 137.932 1130.03 137.932 1130.09 137.948C1130.09 137.778 1129.98 137.546 1129.98 137.407H1130.12C1130.63 139.955 1132.82 141.036 1131.99 143.878C1131.84 144.094 1131.76 144.264 1131.62 144.434C1131.36 144.588 1131.16 144.712 1130.83 144.743ZM1121.62 139.693L1121.67 139.646V139.307C1121.42 138.936 1121.41 138.627 1121.07 138.334C1121.01 138.535 1121.07 138.581 1121.19 138.674C1121.3 138.998 1121.41 139.43 1121.62 139.693ZM1120.66 138.504C1120.68 138.473 1120.71 138.442 1120.74 138.411C1120.7 138.396 1120.68 138.396 1120.65 138.411C1120.65 138.442 1120.65 138.473 1120.66 138.504ZM1092.62 138.766C1092.73 138.704 1092.73 138.704 1092.8 138.596C1093.04 138.596 1093.22 138.72 1093.27 138.38C1093.33 138.318 1093.38 138.241 1093.44 138.179C1093.95 137.871 1094.12 137.515 1094.44 136.975C1095.08 136.79 1095.54 136.434 1095.96 135.801C1096.19 135.6 1096.24 135.508 1096.44 135.338C1096.55 135.183 1096.69 134.689 1096.87 134.689C1096.87 134.643 1096.89 134.612 1096.89 134.581C1096.9 134.597 1096.92 134.597 1096.95 134.612C1096.98 134.55 1096.98 134.55 1096.95 134.489C1097.04 134.35 1097.37 134.319 1097.37 134.118C1097.52 134.087 1097.52 134.087 1097.62 133.994V133.902C1097.63 133.917 1097.66 133.917 1097.69 133.933C1098.14 133.593 1098.65 133.238 1099.18 133.068C1099.2 133.037 1099.2 133.006 1099.21 132.975C1099.29 132.944 1099.37 132.913 1099.46 132.898C1099.81 132.419 1100.22 131.971 1100.65 131.585C1101.16 131.199 1101.69 130.89 1101.95 130.674C1102.34 130.473 1102.88 130.041 1103.33 130.026V129.933C1103.45 129.902 1103.45 129.902 1103.7 129.748C1104.38 129.547 1105.05 129.315 1105.74 129.145C1106.69 128.991 1107.59 128.898 1108.54 128.867C1108.82 129.037 1110.51 129.006 1110.53 129.485C1110.87 129.284 1111.25 129.809 1111.63 129.763C1111.8 129.856 1112 129.948 1112.17 130.041C1113.53 130.211 1114.23 131.601 1115.42 132.188C1115.28 132.018 1114.91 131.57 1114.69 131.585C1114.67 131.554 1114.67 131.523 1114.66 131.493C1114.52 131.462 1114.46 131.307 1114.33 131.23C1114.64 131.153 1115 131.415 1115.06 131.74C1115.28 131.971 1115.54 132.095 1115.79 132.218C1115.8 132.311 1115.82 132.388 1115.82 132.481C1115.97 132.604 1115.97 132.604 1116.49 132.852C1116.76 133.114 1116.93 133.531 1117.2 133.855C1117.85 134.396 1118.73 135.199 1118.81 135.214C1118.7 134.674 1118.54 134.118 1118.1 133.794C1117.89 133.454 1117.35 132.527 1117.01 132.45C1116.52 131.415 1115.22 130.334 1114.43 129.593C1113.54 128.836 1113.54 128.836 1113.44 128.79C1113 128.45 1112.46 128.141 1112.31 128.003C1111.38 127.694 1110.56 127.138 1109.57 126.983C1108.75 126.659 1107.85 126.69 1106.97 126.659C1106.94 126.674 1106.89 126.69 1106.86 126.705C1106.39 126.628 1105.81 126.829 1105.39 126.69C1105.39 126.705 1105.39 126.736 1105.4 126.767C1105.29 126.829 1105.17 126.798 1105.06 126.783C1104.72 127.03 1104.32 126.86 1103.96 127.06C1103.93 126.999 1103.93 126.999 1103.85 126.952C1103.81 127.014 1103.81 127.091 1103.75 127.138C1103.72 127.122 1103.67 127.122 1103.64 127.107C1103.53 127.23 1103.27 127.261 1103.11 127.261C1103.1 127.277 1103.1 127.308 1103.08 127.323C1101.63 127.601 1100 129.022 1098.82 129.948C1098.79 129.933 1098.76 129.933 1098.73 129.933C1098.82 129.763 1098.89 129.624 1099.03 129.5C1099.01 129.099 1099.74 127.972 1100.02 127.601V127.477C1100.08 127.416 1100.14 127.369 1100.2 127.323C1100.19 127.308 1100.17 127.292 1100.17 127.277C1100.25 127.091 1100.34 126.968 1100.47 126.813C1100.4 126.566 1100.79 126.118 1100.9 125.902C1100.9 125.763 1100.91 125.64 1100.91 125.516C1101.27 125.176 1101.39 124.729 1101.69 124.373C1101.84 123.941 1102.06 123.555 1102.28 123.153C1102.34 122.752 1102.48 122.35 1102.77 122.103C1103.44 121.13 1103.72 119.71 1104.38 118.768C1104.57 118.196 1104.89 117.162 1105.25 116.729C1105.42 116.25 1105.56 115.756 1105.81 115.324C1106.04 114.521 1106.38 113.764 1106.63 112.992C1106.84 112.606 1106.86 111.896 1107.14 111.556C1107.51 110.367 1107.97 109.07 1108.22 107.85C1108.3 107.68 1108.37 107.494 1108.47 107.324C1108.45 107.309 1108.45 107.294 1108.44 107.278C1108.67 106.382 1109.04 105.471 1109.23 104.56C1109.35 104.282 1109.64 103.433 1109.64 103.139C1109.95 101.997 1110.39 100.808 1110.59 99.6494C1110.7 99.4177 1110.87 98.661 1110.9 98.6456C1111.83 95.1555 1112.6 91.4801 1112.88 87.851C1113.23 85.7199 1113.51 83.5579 1114.04 81.4885C1114.09 81.1797 1114.15 80.0369 1114.32 79.8207C1114.38 77.7977 1114.41 75.7746 1114.41 73.7516C1114.33 72.8559 1114.06 71.9448 1113.19 71.6823C1112.38 71.6359 1112.04 71.9911 1111.5 72.5162C1111.42 72.7324 1111.15 73.4273 1110.96 73.4273C1110.98 73.4582 1110.98 73.5045 1111.01 73.5509C1110.99 73.5663 1110.98 73.5663 1110.94 73.5972C1110.84 74.7091 1110.71 75.8364 1110.57 76.9483C1110.5 77.2417 1110.34 77.6587 1110.34 77.9521C1110.4 77.9212 1110.4 77.9212 1110.48 77.7204H1110.6C1110.65 77.8131 1110.68 77.9058 1110.73 77.9984C1110.76 79.1875 1110.67 80.4384 1110.22 81.5348C1110.15 81.5966 1110.02 81.9055 1110 82.029C1109.5 82.9247 1109.12 83.8822 1109.02 84.9477C1108.79 85.133 1108.64 88.9165 1108.64 88.9783C1108.64 89.1945 1108.56 90.9859 1108.47 91.0631C1108.44 91.2639 1108.2 93.3023 1108 93.4413C1108 93.6266 1107.6 95.7423 1107.6 95.8967C1107.31 96.4836 1107.17 97.3947 1107.06 98.0279C1106.8 98.8772 1106.66 99.8038 1106.42 100.653C1106.22 102.167 1105.79 103.773 1105.42 105.24C1105.37 105.641 1105.17 106.043 1105.19 106.444C1105.06 106.846 1104.75 108.436 1104.61 108.514C1104.63 108.591 1104.63 108.591 1103.99 110.784C1103.96 110.784 1103.92 110.784 1103.89 110.799C1103.93 110.861 1103.93 110.861 1103.93 111.077C1103.68 111.432 1103.67 112.452 1103.31 112.56V112.621C1103.33 112.606 1103.34 112.606 1103.38 112.606C1103.39 112.699 1103.39 112.699 1103.2 113.27C1103.14 113.625 1102.99 114.938 1102.86 115.046C1102.79 115.71 1102.57 117.239 1102.15 117.733C1102.14 117.826 1101.95 118.304 1101.86 118.366C1101.24 119.509 1100.84 120.837 1100.53 122.119H1100.62C1100.62 122.011 1100.87 121.424 1100.93 121.192C1101.16 120.698 1101.39 120.034 1101.5 119.493C1101.56 119.463 1101.56 119.463 1101.61 119.354C1101.8 119.741 1101.6 120.466 1101.56 120.883C1101.35 121.069 1101.04 121.223 1100.99 121.563C1100.73 122.026 1100.77 122.659 1100.56 123.138C1100.53 123.138 1100.48 123.153 1100.43 123.169C1100.45 123.153 1100.45 123.123 1100.47 123.107C1100.09 122.953 1100.03 124.636 1099.99 124.914C1099.63 125.424 1099.29 125.949 1098.95 126.474C1098.87 126.829 1098.72 127.169 1098.69 127.524C1098.56 127.74 1098.56 127.74 1098.53 127.864C1098.55 127.879 1098.55 127.91 1098.58 127.941C1098.48 128.188 1098.39 128.435 1098.31 128.682C1098.28 128.682 1098.25 128.697 1098.22 128.713C1098.38 129.207 1097.71 129.995 1097.73 130.566C1097.74 130.581 1097.76 130.581 1097.8 130.612C1097.85 130.581 1097.9 130.551 1097.94 130.535L1097.97 130.566C1097.76 130.906 1097.48 131.091 1097.11 131.107C1097.09 131.137 1097.11 131.168 1097.11 131.199H1097.2C1097.09 131.4 1096.86 131.523 1096.66 131.539C1096.67 131.616 1096.67 131.616 1096.64 131.662C1096.63 131.647 1096.61 131.616 1096.58 131.616C1096.83 131.184 1096.78 130.581 1097.17 130.211C1097.23 130.257 1097.23 130.257 1097.32 130.242C1097.2 130.072 1097.57 129.933 1097.66 129.887C1097.74 129.331 1097.93 128.806 1097.91 128.203H1097.71C1097.45 128.713 1097.18 129.238 1096.94 129.763C1096.8 130.18 1096.21 130.921 1096.22 131.307C1096.04 131.801 1095.74 132.728 1095.23 132.882C1094.92 133.547 1094.35 134.102 1093.98 134.736C1093.47 135.23 1093.02 136.681 1093.95 136.959C1093.93 137.067 1093.92 137.176 1093.9 137.299C1093.34 137.809 1093.34 137.809 1092.96 138.21C1092.91 138.426 1092.74 138.55 1092.62 138.766ZM1129.69 137.577H1129.72V137.531H1129.69V137.577ZM1130.31 137.562C1130.31 137.546 1130.31 137.515 1130.32 137.5C1130.29 137.5 1130.29 137.5 1130.31 137.562ZM1129.75 137.392H1129.78V137.315H1129.75V137.392ZM1120.03 137.654C1120.14 137.083 1119.43 136.681 1119.13 136.388C1119.26 136.11 1118.64 135.631 1118.5 135.461C1118.44 134.952 1118.13 134.767 1117.69 134.689C1117.75 135.153 1118.57 135.894 1118.85 136.234C1119.32 136.666 1119.69 137.067 1120.03 137.654ZM1120.23 136.697C1120.26 136.681 1120.29 136.666 1120.34 136.666C1120.29 136.589 1120.26 136.527 1120.23 136.465H1120.17C1120.17 136.542 1120.17 136.542 1120.23 136.697ZM1119.92 136.079H1119.98C1119.95 135.94 1119.78 135.925 1119.78 135.755H1119.72C1119.77 135.878 1119.84 135.971 1119.92 136.079ZM1095.36 136.712V136.651H1095.39V136.712H1095.36ZM1119.69 135.724C1119.7 135.709 1119.7 135.709 1119.64 135.6C1119.64 135.662 1119.64 135.662 1119.69 135.724ZM1124.38 135.384H1124.44V135.353H1124.38V135.384ZM1128.5 134.983H1128.53V134.936H1128.5V134.983ZM1118.64 134.952C1118.65 134.936 1118.67 134.936 1118.68 134.921C1118.61 134.797 1118.61 134.797 1118.53 134.767C1118.54 134.859 1118.54 134.859 1118.64 134.952ZM1118.47 134.736C1118.5 134.535 1118.36 134.334 1118.23 134.195C1118.31 134.365 1118.39 134.55 1118.47 134.736ZM1118.1 134.149H1118.13V134.087H1118.1V134.149ZM1097.31 134.056V134.01H1097.37V134.056H1097.31ZM1097.49 133.979V133.902H1097.56V133.979H1097.49ZM1097.66 133.871C1097.66 133.824 1097.66 133.824 1097.66 133.871ZM1094.77 133.485V133.438H1094.83V133.485H1094.77ZM1115.49 132.311H1115.56V132.234H1115.49C1115.48 132.265 1115.49 132.28 1115.49 132.311ZM1096.1 132.157C1096.08 132.141 1096.08 132.11 1096.07 132.095C1096.07 132.064 1096.1 132.033 1096.12 132.018H1096.25C1096.19 132.064 1096.15 132.11 1096.1 132.157ZM1095.81 132.064V131.987H1095.87V132.064H1095.81ZM1096.89 131.446V131.4H1096.92V131.446H1096.89ZM1098.03 130.535V130.489H1098.13V130.535H1098.03ZM1098.16 130.489V130.427C1098.3 130.35 1098.3 130.35 1098.53 130.165C1098.44 130.304 1098.3 130.412 1098.16 130.489ZM1097.51 130.396V130.365H1097.57V130.396H1097.51ZM1097.99 130.273C1098.08 129.871 1098.38 129.593 1098.59 129.284C1098.69 129.253 1098.69 129.253 1098.72 129.207C1098.7 129.192 1098.69 129.161 1098.67 129.145C1098.75 129.084 1098.82 129.006 1098.92 128.945C1098.96 129.284 1098.41 129.717 1098.24 129.979C1098.22 130.072 1098.22 130.149 1098.21 130.257C1098.14 130.242 1098.07 130.257 1097.99 130.273ZM1114.29 129.701C1114.32 129.624 1114.24 129.531 1114.18 129.5C1114.18 129.578 1114.18 129.578 1114.29 129.701ZM1098.7 130.072V129.995H1098.73V130.072H1098.7ZM1097.69 130.056C1097.69 130.041 1097.71 130.01 1097.71 129.995C1097.73 130.01 1097.73 130.026 1097.76 130.056H1097.69ZM1098.89 128.79C1098.92 128.589 1098.93 128.605 1099.07 128.558V128.636C1098.99 128.62 1098.99 128.62 1098.96 128.651C1098.98 128.667 1099.01 128.667 1099.04 128.697C1098.98 128.759 1098.98 128.759 1098.89 128.79ZM1120.12 126.566H1120.22V126.489C1120.14 126.52 1120.14 126.52 1120.12 126.566ZM1108.25 126.628V126.597H1108.31V126.628H1108.25ZM1099.07 126.257V126.18C1099.09 126.196 1099.1 126.196 1099.12 126.211C1099.09 126.227 1099.07 126.227 1099.07 126.257ZM1099.63 125.439V125.393H1099.66V125.439H1099.63ZM1101.58 124.281V124.204H1101.61V124.281H1101.58ZM1100.4 122.628C1100.43 122.489 1100.48 122.335 1100.51 122.211H1100.57C1100.57 122.366 1100.48 122.459 1100.51 122.628H1100.4ZM1122.75 121.779H1122.79V121.733H1122.75V121.779ZM1117.89 119.972C1117.91 119.957 1117.94 119.941 1117.97 119.926C1117.94 119.91 1117.91 119.91 1117.89 119.895V119.972ZM1103.85 119.169C1103.9 119.061 1104.12 118.397 1104.3 118.49C1104.27 118.752 1104.07 119.061 1103.85 119.169ZM1103.64 111.602C1103.62 111.587 1103.62 111.556 1103.61 111.54C1103.62 111.525 1103.64 111.525 1103.67 111.51C1103.65 111.556 1103.65 111.571 1103.64 111.602ZM1113.95 101.487C1114.06 101.116 1114.06 100.931 1114.01 100.545C1113.88 100.869 1113.93 101.132 1113.95 101.487ZM1107.59 97.441V97.3947H1107.62V97.441H1107.59ZM1115.4 96.0048C1115.42 95.9894 1115.43 95.9894 1115.46 95.974C1115.48 95.8967 1115.48 95.8967 1115.42 95.835C1115.42 95.8813 1115.4 95.9276 1115.4 96.0048ZM1114.12 89.9358C1114.15 89.9203 1114.18 89.8894 1114.23 89.874C1114.24 89.7813 1114.24 89.7041 1114.24 89.6115C1114.21 89.596 1114.18 89.596 1114.15 89.596C1114.13 89.5497 1114.13 89.5497 1114.4 88.654C1114.43 88.3915 1114.44 88.129 1114.47 87.8664C1114.3 87.8664 1114.3 87.8664 1114.26 87.9128C1114.26 88.1135 1114.26 88.1135 1114.3 88.3915C1113.99 88.9011 1114.07 89.3644 1114.12 89.9358ZM1115.28 89.596C1115.31 89.5806 1115.34 89.5651 1115.39 89.5651C1115.4 89.3798 1115.43 89.1945 1115.45 89.0092C1115.45 87.8201 1115.53 86.6001 1115.54 85.3956C1115.01 85.411 1115.2 85.967 1115.25 86.353C1115.26 86.8626 1115.26 86.8626 1115.2 87.4649C1115.09 87.6039 1115 87.7583 1114.89 87.8973C1114.91 88.4841 1115 89.0864 1115.28 89.596ZM1113.88 85.7662C1113.88 85.5809 1113.88 85.5809 1113.92 85.5809C1113.93 85.6427 1113.93 85.7044 1113.96 85.7662H1113.88ZM1113.95 85.5191C1113.93 85.4265 1113.92 85.3492 1113.9 85.2566H1113.99C1113.99 85.4573 1113.99 85.4573 1113.95 85.5191ZM1115.46 85.3184C1115.48 85.2875 1115.48 85.2566 1115.49 85.2257C1115.51 85.2411 1115.51 85.2875 1115.54 85.3184H1115.46ZM1113.95 85.1794C1113.95 85.0095 1113.95 84.8242 1113.96 84.6698C1113.98 84.6543 1114.01 84.6543 1114.04 84.6389C1114.02 84.6852 1114.02 84.7315 1114.02 84.7933C1114.06 84.7933 1114.1 84.8087 1114.15 84.8087C1114.1 84.9168 1114.07 85.0249 1114.02 85.1485C1113.98 85.1639 1113.96 85.1794 1113.95 85.1794ZM1115.46 85.1022C1115.4 84.5925 1115.22 83.9748 1115.32 83.4652H1115.39C1115.4 83.2336 1115.54 82.7548 1115.73 82.6931C1115.71 82.8012 1115.65 82.8629 1115.59 83.1718C1115.56 84.5771 1115.56 84.5771 1115.53 85.0713C1115.49 85.0713 1115.48 85.0867 1115.46 85.1022ZM1114.19 84.7779L1114.24 84.6389C1114.27 84.6234 1114.32 84.6234 1114.35 84.6234C1114.33 84.6389 1114.33 84.6698 1114.33 84.7006C1114.29 84.7315 1114.24 84.747 1114.19 84.7779ZM1114.13 83.8667C1114.18 83.6351 1114.24 83.4189 1114.26 83.1872C1114.4 83.1872 1114.36 83.4652 1114.35 83.5733C1114.29 83.666 1114.21 83.7586 1114.13 83.8667ZM1115.73 82.6158V82.5695H1115.76V82.6158H1115.73ZM1115.88 82.2298V82.1989H1115.94V82.2298H1115.88ZM1115.39 80.1604C1115.37 79.6663 1115.49 78.8787 1115.88 78.5853C1115.88 78.4308 1115.9 78.2764 1115.91 78.122C1116.04 78.0602 1116.1 78.0293 1116.24 78.0448C1116.25 77.9984 1116.25 77.9675 1116.27 77.9366H1116.33V78.0602C1116.25 78.1065 1115.76 79.3728 1115.71 79.5427C1115.68 79.5582 1115.65 79.5736 1115.63 79.589C1115.67 79.7435 1115.68 79.8516 1115.65 80.0214C1115.56 80.0678 1115.46 80.1141 1115.39 80.1604ZM1110.28 78.122V78.0602C1110.29 78.0602 1110.31 78.0756 1110.32 78.0756C1110.31 78.0911 1110.28 78.1065 1110.28 78.122ZM1116.27 77.8749V77.7204C1116.28 77.7359 1116.32 77.7359 1116.35 77.7513V77.844C1116.3 77.8594 1116.28 77.8594 1116.27 77.8749Z" fill="white"/>
<path d="M1118.37 153.514L1118.36 154.502H1118.7C1120.14 154.502 1121.5 154.379 1122.63 154.255L1122.52 153.282C1121.33 153.406 1119.91 153.529 1118.37 153.514ZM1149.64 152.309L1149.62 152.278C1148.94 151.398 1148.01 150.935 1147.12 150.487C1146.75 150.302 1146.34 150.116 1145.99 149.885L1145.66 149.7C1145.37 149.53 1145.17 149.422 1145.14 149.267C1145.03 148.881 1145.1 148.526 1145.4 148.063C1145.62 147.8 1145.85 147.538 1146.16 147.368C1146.39 147.26 1146.62 147.136 1146.84 147.09C1147.27 146.997 1147.61 146.935 1147.91 147.074C1147.92 147.09 1147.94 147.121 1147.97 147.136C1148.01 147.198 1148.08 147.26 1148.14 147.321L1148.82 146.611L1148.73 146.518C1148.63 146.41 1148.51 146.256 1148.29 146.179C1147.69 145.916 1147.09 146.04 1146.65 146.132C1146.31 146.194 1146 146.348 1145.71 146.503C1145.23 146.765 1144.9 147.151 1144.64 147.445L1144.61 147.491C1144.3 147.939 1143.93 148.649 1144.19 149.545C1144.35 150.101 1144.83 150.364 1145.2 150.564C1145.29 150.611 1145.38 150.657 1145.48 150.719C1145.88 150.966 1146.28 151.167 1146.68 151.367C1147.52 151.769 1148.29 152.155 1148.85 152.85C1149.02 153.112 1149.08 153.344 1149.05 153.545C1149.02 153.607 1148.91 153.684 1148.8 153.761C1148.74 153.792 1148.7 153.838 1148.65 153.869C1147.86 154.286 1146.99 154.703 1145.96 154.935C1145.8 154.966 1145.41 155.058 1145.28 155.012C1144.98 154.564 1145.01 153.931 1145.4 153.143L1144.52 152.726C1144.3 153.174 1144.18 153.607 1144.13 154.008C1144.05 153.977 1143.99 153.946 1143.91 153.915C1143.29 153.545 1142.89 153.22 1142.8 152.757V152.726C1142.63 152.062 1142.66 151.398 1142.77 150.781L1143.05 150.132C1143.15 149.823 1143.25 149.53 1143.34 149.236C1143.45 148.912 1143.54 148.588 1143.65 148.279C1143.76 148.063 1143.85 147.846 1143.93 147.615L1143.02 147.26C1142.92 147.476 1142.83 147.676 1142.75 147.893C1142.71 147.97 1142.67 148.063 1142.63 148.14C1142.5 148.387 1142.37 148.634 1142.26 148.912L1142.24 148.943C1142.18 149.159 1142.12 149.375 1142.07 149.576C1142.01 149.777 1141.96 149.977 1141.9 150.194L1141.89 150.24C1141.87 150.333 1141.85 150.41 1141.84 150.503C1141.24 151.707 1140.29 152.711 1139.01 153.483C1138.9 153.545 1138.76 153.545 1138.71 153.514C1138.7 153.514 1138.68 153.498 1138.68 153.468C1138.54 152.433 1138.56 151.429 1138.57 150.379C1138.59 149.808 1138.59 149.205 1138.57 148.619L1137.58 148.649C1137.6 149.221 1137.6 149.792 1137.58 150.348C1137.33 149.715 1136.68 149.252 1135.82 149.082C1135.23 148.943 1134.58 148.927 1133.82 149.035C1133.36 149.082 1132.99 149.236 1132.63 149.406C1132.51 149.468 1132.38 149.514 1132.24 149.576L1132.27 149.638C1131.86 149.792 1131.47 150.024 1131.11 150.255C1130.96 150.348 1130.83 150.456 1130.71 150.564C1130.86 150.333 1131 150.116 1131.16 149.9C1131.61 149.236 1132.06 148.557 1132.54 147.831L1132.61 147.707C1133.11 146.935 1133.59 146.194 1133.98 145.329C1134.07 145.082 1134.08 144.866 1133.99 144.681C1133.91 144.495 1133.59 144.186 1133.51 144.264C1133.29 144.464 1132.27 146.41 1131.78 147.198L1131.7 147.321C1131.24 148.047 1130.77 148.711 1130.32 149.375C1129.86 150.07 1129.38 150.781 1128.88 151.537C1128.4 152.232 1128.03 152.958 1127.68 153.653C1127.51 153.977 1127.34 154.317 1127.17 154.641C1127.1 154.533 1127.04 154.41 1126.96 154.301C1126.48 153.591 1126.02 152.943 1125.52 152.263C1125.28 151.923 1125.03 151.584 1124.78 151.228C1124.07 150.209 1123.47 149.221 1122.88 148.263C1122.66 147.893 1122.43 147.538 1122.2 147.167L1121.31 147.584C1121.41 147.846 1121.55 148.109 1121.69 148.356C1121.76 148.51 1121.86 148.649 1121.92 148.788L1122.01 148.742C1122.03 148.757 1122.03 148.773 1122.04 148.773C1122.63 149.746 1123.25 150.75 1123.98 151.8C1124.24 152.155 1124.49 152.51 1124.74 152.85C1125.23 153.529 1125.69 154.163 1126.16 154.857C1126.39 155.197 1126.48 155.491 1126.44 155.722L1126.24 156.695L1127.13 156.247C1127.29 156.17 1127.4 156.062 1127.51 155.954L1127.57 155.892L1127.6 155.846C1127.97 155.259 1128.28 154.657 1128.57 154.085C1128.88 153.468 1129.18 152.896 1129.55 152.325C1129.33 152.989 1129.32 153.746 1129.47 154.564C1129.63 155.444 1130.52 155.908 1130.83 156.062C1131.22 156.247 1131.65 156.34 1132.16 156.34C1132.44 156.34 1132.74 156.309 1133.06 156.247C1134.47 156.016 1135.45 155.244 1136.28 154.456C1136.98 153.869 1137.41 153.251 1137.61 152.587C1137.63 152.943 1137.66 153.298 1137.71 153.653C1137.77 154.008 1137.97 154.286 1138.29 154.44C1138.65 154.61 1139.11 154.579 1139.52 154.363C1140.4 153.838 1141.16 153.19 1141.78 152.448C1141.81 152.634 1141.84 152.819 1141.89 153.004C1142.06 153.854 1142.74 154.379 1143.45 154.796C1143.7 154.95 1143.97 155.043 1144.25 155.074C1144.32 155.259 1144.39 155.444 1144.52 155.614C1144.73 155.954 1145.09 156.047 1145.45 156.047C1145.74 156.047 1146.03 155.985 1146.25 155.923C1147.4 155.66 1148.34 155.213 1149.21 154.749L1149.28 154.703C1149.33 154.672 1149.38 154.641 1149.42 154.595C1149.64 154.44 1149.95 154.24 1150.07 153.838L1150.09 153.807C1150.09 153.313 1149.97 152.804 1149.64 152.309ZM1136.61 152.186C1136.47 152.711 1136.14 153.174 1135.55 153.653L1135.52 153.684C1134.8 154.379 1133.96 155.043 1132.81 155.244C1132.12 155.367 1131.59 155.336 1131.19 155.135C1130.68 154.873 1130.42 154.61 1130.35 154.332C1130.17 153.359 1130.28 152.556 1130.71 151.923C1130.94 151.599 1131.17 151.306 1131.56 151.043C1132.01 150.75 1132.4 150.533 1132.81 150.425C1133.06 150.348 1133.34 150.333 1133.64 150.333H1134.01C1134.27 150.333 1134.55 150.348 1134.83 150.333L1134.8 149.931C1135.04 149.947 1135.28 149.962 1135.51 150.024C1136.07 150.132 1136.47 150.41 1136.58 150.719C1136.76 151.197 1136.76 151.676 1136.61 152.186Z" fill="white"/>
<path d="M1113.14 158.843L1112.96 158.812C1112.34 158.688 1111.81 158.58 1111.36 158.178C1111.38 157.916 1111.56 157.715 1111.84 157.422L1111.95 157.314L1111.98 157.283C1113.2 155.754 1114.57 154.673 1116.02 153.515C1116.49 153.144 1116.97 152.773 1117.43 152.387C1117.65 152.218 1117.83 152.048 1118.03 151.878C1118.39 151.553 1118.73 151.245 1119.1 151.075L1118.9 150.133C1118.67 150.133 1118.36 150.133 1118.05 150.256C1116.78 150.55 1115.7 150.874 1114.43 151.26L1114.29 151.306C1113.45 151.523 1112.55 151.739 1111.61 151.847L1111.72 152.82C1112.72 152.712 1113.67 152.48 1114.55 152.248L1114.71 152.202C1115.46 151.97 1116.16 151.754 1116.87 151.569C1116.86 151.584 1116.83 151.6 1116.79 151.631C1116.33 152.017 1115.85 152.403 1115.4 152.758C1114.07 153.824 1112.79 154.827 1111.61 156.202L1111.89 155.831L1111.1 155.244C1110.74 155.723 1110.34 156.217 1109.88 156.665C1109.33 157.144 1108.61 157.715 1107.72 157.885C1107.52 157.916 1106.49 158.07 1106.22 157.422C1106.13 157.159 1106.16 156.85 1106.19 156.495L1106.21 156.356C1106.24 155.955 1106.28 155.569 1106.36 155.229C1106.39 155.244 1106.42 155.275 1106.46 155.291C1106.97 155.553 1107.52 155.461 1108.02 155.352C1108.71 155.183 1109.33 154.797 1109.89 154.163C1110.4 153.577 1110.59 152.773 1110.46 151.801C1110.45 151.507 1110.25 151.26 1109.94 151.152L1109.89 151.137C1108.62 150.812 1107.29 151.445 1106.33 152.82C1105.73 153.669 1105.39 154.627 1105.26 155.878C1105.26 155.615 1105.28 155.337 1105.29 155.074C1105.31 154.596 1105.34 154.102 1105.39 153.592L1105.45 153.453C1105.53 153.19 1105.56 152.928 1105.57 152.712C1105.59 152.511 1105.6 152.326 1105.67 152.171L1105.94 151.399H1105.68C1105.94 149.7 1106.01 148.326 1105.88 146.952V146.874C1105.87 146.627 1105.82 146.272 1105.56 145.979L1105.51 145.932C1105.29 145.762 1104.92 145.778 1104.72 145.963L1104.66 146.025C1104.5 146.226 1104.49 146.442 1104.47 146.581C1104.47 146.612 1104.47 146.643 1104.46 146.674C1104.41 146.828 1104.41 146.952 1104.43 147.029L1104.91 147.137C1105.02 148.465 1104.94 149.824 1104.66 151.553L1104.41 151.708L1104.47 151.909L1104.46 151.955L1104.44 151.94C1104.27 151.816 1104.04 151.662 1103.75 151.646C1103.45 151.615 1103.17 151.615 1102.82 151.646H1102.79C1102.57 151.677 1102.38 151.77 1102.2 151.831L1102.17 151.847C1101.61 152.14 1100.99 152.511 1100.59 153.16L1100.5 153.299C1100.28 153.623 1100.08 153.932 1099.94 154.349C1099.64 155.306 1099.51 156.294 1099.55 157.345C1099.2 157.684 1098.78 157.947 1098.28 158.117C1098.07 158.194 1097.83 158.194 1097.55 158.178H1097.26C1097 158.163 1096.77 158.024 1096.67 157.823C1096.6 157.653 1096.53 157.468 1096.53 157.329V157.298C1096.5 156.773 1096.5 156.264 1096.5 155.723C1096.5 154.997 1096.5 154.241 1096.42 153.468C1096.42 153.16 1096.3 152.928 1096.08 152.804C1095.71 152.557 1095.36 152.804 1095.22 152.912L1095.12 152.974C1094.83 153.19 1094.52 153.407 1094.23 153.716L1094.13 153.824C1093.28 154.75 1092.49 155.646 1091.78 156.711C1091.8 156.588 1091.83 156.449 1091.86 156.325C1091.89 156.125 1091.94 155.939 1091.97 155.723V155.692C1091.98 155.522 1092 155.352 1092 155.198C1092.01 154.966 1092.03 154.735 1092.06 154.519L1091.08 154.364C1091.04 154.642 1091.02 154.889 1091.01 155.136C1090.99 155.291 1090.99 155.43 1090.98 155.584C1090.95 155.769 1090.91 155.955 1090.87 156.14C1090.81 156.433 1090.76 156.742 1090.71 157.082C1090.68 157.391 1090.67 157.684 1090.65 157.962L1090.57 157.916C1090.33 158.426 1089.88 158.812 1089.23 159.275C1088.41 159.877 1087.6 160.263 1086.7 160.464C1086.6 160.479 1086.49 160.495 1086.39 160.51L1085.78 160.155L1084.8 159.599V159.584C1084.61 158.781 1084.88 157.962 1085.14 157.283V157.267C1085.25 157.36 1085.39 157.422 1085.53 157.484C1085.88 157.638 1086.29 157.669 1086.75 157.561C1087.83 157.298 1088.56 156.511 1089.06 155.847C1089.34 155.476 1089.48 155.136 1089.51 154.75V154.611C1089.52 154.457 1089.54 154.241 1089.44 154.009C1089.15 153.299 1088.31 153.407 1087.93 153.453H1087.88C1087.29 153.515 1086.83 153.808 1086.41 154.132C1085.92 154.519 1085.5 154.92 1085.14 155.368L1084.79 155.198C1084.66 155.476 1084.6 155.785 1084.61 156.125C1084.46 156.387 1084.34 156.65 1084.23 156.928C1083.98 157.53 1083.76 158.24 1083.75 158.997C1083.13 158.642 1082.53 158.287 1081.91 157.901C1081.38 157.576 1080.84 157.314 1080.33 157.067C1080.19 157.005 1080.05 156.928 1079.92 156.866C1081.23 156.418 1082.57 155.754 1083.84 154.627C1084.17 154.349 1084.66 153.932 1084.75 153.129C1084.82 152.773 1084.8 152.403 1084.71 152.079C1084.6 151.723 1084.41 151.523 1084.24 151.368L1084.23 151.353C1083.58 150.812 1082.85 150.519 1081.92 150.395C1080.75 150.272 1079.62 150.334 1078.58 150.411C1077.96 150.442 1077.34 150.55 1076.71 150.72C1076.71 150.658 1076.72 150.611 1076.72 150.55L1075.75 150.442C1075.73 150.627 1075.7 150.828 1075.68 151.044C1075.62 151.075 1075.54 151.09 1075.48 151.121C1075.3 151.183 1075.11 151.229 1074.91 151.291C1074.63 151.368 1074.35 151.43 1074.04 151.569L1074.45 152.465C1074.66 152.372 1074.89 152.31 1075.14 152.248C1075.3 152.218 1075.45 152.171 1075.61 152.125V152.418C1075.41 155.352 1075.42 158.333 1075.65 161.283V161.329C1075.68 161.483 1075.68 161.715 1075.68 161.962C1075.68 162.24 1075.68 162.533 1075.73 162.827L1076.71 162.688C1076.67 162.472 1076.67 162.209 1076.67 161.962C1076.67 161.684 1076.67 161.422 1076.63 161.174C1076.41 158.271 1076.4 155.337 1076.58 152.465V152.434C1076.58 152.233 1076.58 152.001 1076.6 151.785C1077.31 151.553 1077.96 151.43 1078.62 151.399C1079.63 151.322 1080.7 151.26 1081.8 151.368C1082.54 151.461 1083.08 151.677 1083.58 152.094C1083.67 152.187 1083.73 152.248 1083.76 152.357C1083.81 152.542 1083.83 152.773 1083.78 152.99V153.021C1083.73 153.422 1083.53 153.623 1083.19 153.901C1081.52 155.399 1079.63 156.001 1077.99 156.449L1078.25 157.391C1078.38 157.36 1078.49 157.329 1078.61 157.298C1079.04 157.545 1079.48 157.762 1079.89 157.962C1080.39 158.209 1080.92 158.472 1081.38 158.75C1082.26 159.321 1083.16 159.831 1084.03 160.31C1084.32 160.835 1084.85 161.236 1085.51 161.437C1085.71 161.483 1085.92 161.514 1086.15 161.514C1086.95 161.962 1087.76 162.425 1088.59 162.858C1088.67 162.904 1088.75 162.935 1088.83 162.981C1089.15 163.167 1089.52 163.367 1089.94 163.398L1090 162.425C1089.8 162.41 1089.55 162.271 1089.29 162.132C1089.2 162.086 1089.12 162.039 1089.04 161.993C1088.58 161.746 1088.11 161.483 1087.65 161.221C1088.39 160.974 1089.1 160.603 1089.8 160.078C1090.03 159.924 1090.26 159.738 1090.48 159.553V160.032L1091.13 159.815C1091.46 159.707 1091.56 159.46 1091.6 159.352L1091.61 159.337C1091.78 159.028 1091.91 158.704 1092.03 158.41C1092.15 158.07 1092.28 157.746 1092.48 157.453C1093.17 156.356 1093.99 155.445 1094.86 154.488L1094.95 154.38C1095.11 154.21 1095.3 154.071 1095.48 153.932C1095.53 154.534 1095.53 155.136 1095.53 155.739C1095.53 156.264 1095.53 156.82 1095.56 157.36C1095.56 157.684 1095.67 157.978 1095.79 158.24C1096.05 158.781 1096.61 159.151 1097.28 159.167H1097.55C1097.88 159.182 1098.25 159.182 1098.62 159.059C1099.03 158.935 1099.4 158.75 1099.72 158.518C1099.88 158.935 1100.25 159.29 1100.77 159.522C1100.98 159.599 1101.18 159.646 1101.41 159.646C1101.61 159.646 1101.84 159.615 1102.06 159.537C1103.08 159.198 1103.64 158.317 1104.07 157.592C1104.13 157.499 1104.18 157.406 1104.23 157.298C1104.24 157.453 1104.26 157.592 1104.29 157.746L1104.33 158.024C1104.37 158.225 1104.4 158.441 1104.44 158.673C1104.47 158.796 1104.49 158.935 1104.5 159.09C1104.54 159.29 1104.55 159.522 1104.63 159.769L1105.76 159.584V159.522H1105.37L1105.73 159.414C1105.68 159.275 1105.67 159.136 1105.65 158.966C1105.63 158.796 1105.6 158.611 1105.56 158.426C1105.53 158.317 1105.51 158.209 1105.5 158.101C1105.84 158.642 1106.49 158.951 1107.28 158.951C1107.48 158.951 1107.71 158.935 1107.93 158.889C1109.06 158.688 1109.92 158.009 1110.57 157.437C1110.65 157.36 1110.71 157.298 1110.77 157.221C1110.53 157.545 1110.31 157.978 1110.4 158.549L1110.42 158.704L1110.53 158.812C1111.21 159.537 1112.03 159.707 1112.77 159.846L1112.94 159.877C1114.01 160.124 1115.08 160.31 1116.1 160.479C1117.43 160.696 1118.7 160.912 1119.98 161.283L1120.26 160.341C1118.92 159.954 1117.57 159.723 1116.25 159.507C1115.23 159.26 1114.19 159.09 1113.14 158.843ZM1107.17 153.36C1107.43 152.99 1108.34 151.831 1109.52 152.032C1109.58 152.665 1109.46 153.16 1109.16 153.515C1108.75 153.993 1108.31 154.271 1107.82 154.395C1107.51 154.457 1107.17 154.519 1106.95 154.426C1106.93 154.41 1106.89 154.333 1106.86 154.287C1106.83 154.225 1106.78 154.163 1106.73 154.102C1106.87 153.839 1107.01 153.592 1107.17 153.36ZM1086.98 154.858C1087.34 154.58 1087.62 154.41 1087.96 154.38L1088.02 154.364C1088.14 154.349 1088.39 154.318 1088.5 154.333V154.472C1088.5 154.534 1088.5 154.58 1088.48 154.642C1088.47 154.812 1088.39 154.982 1088.24 155.183C1087.8 155.754 1087.26 156.356 1086.49 156.542C1086.24 156.603 1086.04 156.588 1085.87 156.511C1085.73 156.464 1085.62 156.356 1085.61 156.294C1085.95 155.785 1086.41 155.306 1086.98 154.858ZM1103.19 157.036C1102.8 157.669 1102.38 158.333 1101.72 158.549C1101.47 158.626 1101.25 158.626 1101.1 158.565C1100.94 158.503 1100.59 158.317 1100.56 158.024C1100.42 156.804 1100.51 155.692 1100.85 154.611C1100.94 154.333 1101.1 154.102 1101.3 153.808L1101.39 153.654C1101.67 153.206 1102.14 152.928 1102.59 152.696C1102.69 152.65 1102.82 152.604 1102.91 152.588C1103.19 152.557 1103.41 152.573 1103.62 152.588H1103.67C1103.67 152.588 1103.72 152.604 1103.79 152.665C1103.9 152.758 1104.01 152.882 1104.07 153.005C1104.1 153.067 1104.12 153.175 1104.12 153.314C1104.12 153.376 1104.12 153.453 1104.13 153.515L1104.23 153.499C1104.21 153.746 1104.2 153.978 1104.18 154.21C1104.02 155.167 1103.73 156.125 1103.19 157.036Z" fill="white"/>
</svg>
