<svg width="81" height="113" viewBox="0 0 81 113" fill="none" xmlns="http://www.w3.org/2000/svg">
<path fill-rule="evenodd" clip-rule="evenodd" d="M0 0H80.6434V106.818H0V0Z" fill="#E31182"/>
<path fill-rule="evenodd" clip-rule="evenodd" d="M23.574 27.3633H57.1315V112.515H23.574V27.3633Z" fill="#181716"/>
<path fill-rule="evenodd" clip-rule="evenodd" d="M58.834 82.7431L58.3232 82.6041C57.3945 82.1099 56.698 81.1525 56.1562 80.195C55.8621 80.0097 55.4442 79.2221 55.274 78.9442C55.1966 78.8669 54.7167 78.4036 54.8406 78.4036C54.8251 77.9558 53.1998 74.9908 52.8903 74.3422C52.6736 74.1105 52.7355 73.6627 52.4723 73.4619C52.4569 72.8751 51.6829 71.6705 51.4198 71.0992C51.3579 70.8984 51.3114 70.7131 51.1721 70.5741C50.8006 69.7711 50.3518 68.968 50.0112 68.165C49.6707 67.6091 49.3611 66.9605 49.1135 66.3273C48.2157 64.6131 47.5037 62.7291 46.9155 60.8296C46.7917 60.7524 46.6833 60.1347 46.5595 59.9494C46.575 59.9031 46.575 59.8722 46.5905 59.8413C46.219 58.8529 45.9559 57.8028 45.6153 56.799C45.4141 55.8725 45.0271 54.9459 44.7795 54.0348H44.6866V53.9575C44.7021 53.9421 44.733 53.9421 44.764 53.9421C44.3925 52.7221 44.021 51.4558 43.7269 50.2204C43.5102 49.7571 43.2935 48.8459 43.2471 48.3363C43.1852 48.1973 42.8292 46.4677 42.7827 46.3751C42.3648 44.0741 41.7921 41.7113 41.7457 39.3486C41.7147 39.3022 41.7147 39.3022 41.529 35.5187C41.6683 35.1635 41.5754 34.5458 41.529 34.1752C41.529 33.4957 41.3897 32.1676 41.6992 31.5653C41.4825 30.7623 41.6528 29.8203 41.6992 29.0018C41.6838 28.8628 41.6838 28.8628 41.885 26.392C42.0088 26.1294 42.21 25.5889 42.4732 25.4963L42.6125 27.1641C42.6434 27.1641 42.6744 27.1641 42.7054 27.1796C42.7518 27.2722 42.7827 27.3803 42.8292 27.4884C42.7673 27.473 42.7208 27.473 42.6589 27.4575C42.7363 28.2606 42.9066 29.079 42.9375 29.8975C42.8601 30.4535 42.7363 30.994 42.7208 31.5653C43.2161 33.0788 43.2161 33.0788 43.2161 33.1869C43.1233 33.2332 43.0459 33.2795 42.953 33.3258C43.0614 34.0825 43.5412 34.8392 43.1388 35.5959C43.1542 36.1828 43.4019 36.7233 43.7424 37.1557C43.7579 37.1402 43.7734 37.1402 43.7889 37.1402C43.6805 36.1519 43.4019 35.0554 43.4019 34.0517C43.4638 34.1443 43.4948 34.4377 43.5257 34.4532C43.7579 35.7658 43.8817 36.8468 43.9127 36.924C43.9282 37.8815 43.9436 38.8544 44.1449 39.781C44.6711 41.4797 45.3986 43.1475 45.6618 44.9389C45.8011 45.2014 45.8165 46.3288 46.0487 46.4832C47.1322 50.869 49.0206 55.0385 50.4446 59.2699C50.5839 59.8413 50.8935 60.3663 51.0947 60.9223C51.7758 62.2658 52.1628 63.841 52.9986 65.0919C53.0141 65.0764 53.0296 65.0455 53.0605 65.0301C53.076 65.4625 53.6487 66.2192 53.8809 66.6362C53.9428 66.667 53.9428 66.667 54.3143 67.3465H54.4226C54.4381 67.4083 54.4381 67.4083 54.3917 67.4701C54.6393 67.9334 54.9489 68.3967 55.1501 68.8908H55.243C55.2585 69.246 55.6609 70.0336 55.8157 70.3733C56.0324 71.13 56.1872 71.9022 56.2491 72.7207C56.4039 73.2457 56.4039 73.2457 56.5277 73.5546C56.5432 73.57 56.5742 73.57 56.5896 73.5855C56.6051 73.9407 56.9302 74.79 57.2397 74.9136C57.2243 74.9136 57.2088 74.929 57.1778 74.929C57.2088 75.1761 57.7815 75.7938 57.8898 75.9173C57.9517 75.9328 58.0291 75.9328 58.0911 75.9482C58.0911 75.7784 57.9827 75.5467 57.9827 75.4077H58.122C58.6328 77.9558 60.8153 79.0368 59.9949 81.8783C59.8401 82.0945 59.7627 82.2644 59.6234 82.4342C59.3603 82.5887 59.1591 82.7122 58.834 82.7431ZM49.6243 77.6933L49.6707 77.6469V77.3072C49.4231 76.9366 49.4076 76.6277 49.067 76.3343C49.0051 76.5351 49.067 76.5814 49.1909 76.674C49.2992 76.9983 49.4076 77.4307 49.6243 77.6933ZM48.6646 76.5042C48.6801 76.4733 48.711 76.4424 48.742 76.4115C48.6956 76.3961 48.6801 76.3961 48.6491 76.4115C48.6491 76.4424 48.6491 76.4733 48.6646 76.5042ZM20.6174 76.7667C20.7258 76.7049 20.7258 76.7049 20.8032 76.5968C21.0354 76.5968 21.2211 76.7204 21.2675 76.3806C21.3294 76.3189 21.3759 76.2416 21.4378 76.1799C21.9486 75.871 22.1189 75.5158 22.4439 74.9753C23.0785 74.79 23.5429 74.4348 23.9608 73.8017C24.193 73.6009 24.2394 73.5082 24.4406 73.3384C24.549 73.1839 24.6883 72.6898 24.874 72.6898C24.874 72.6434 24.8895 72.6126 24.8895 72.5817C24.905 72.5971 24.9205 72.5971 24.9514 72.6126C24.9824 72.5508 24.9824 72.5508 24.9514 72.489C25.0443 72.35 25.3694 72.3191 25.3694 72.1184C25.5241 72.0875 25.5241 72.0875 25.617 71.9948V71.9022C25.6325 71.9176 25.6634 71.9176 25.6944 71.9331C26.1433 71.5933 26.6541 71.2381 27.1803 71.0683C27.1958 71.0374 27.1958 71.0065 27.2113 70.9756C27.2887 70.9447 27.3661 70.9138 27.459 70.8984C27.815 70.4197 28.2174 69.9718 28.6508 69.5858C29.1616 69.1997 29.6879 68.8908 29.951 68.6746C30.338 68.4739 30.8797 68.0415 31.3286 68.026V67.9334C31.4524 67.9025 31.4524 67.9025 31.7001 67.7481C32.3811 67.5473 33.0467 67.3156 33.7433 67.1458C34.6875 66.9913 35.5852 66.8987 36.5449 66.8678C36.8235 67.0377 38.5107 67.0068 38.5261 67.4855C38.8667 67.2848 39.2536 67.8098 39.6251 67.7635C39.7954 67.8561 39.9966 67.9488 40.1669 68.0415C41.529 68.2113 42.2255 69.6012 43.4174 70.188C43.2781 70.0182 42.9066 69.5703 42.6899 69.5858C42.6744 69.5549 42.6744 69.524 42.6589 69.4931C42.5196 69.4622 42.4577 69.3078 42.3339 69.2306C42.6434 69.1534 42.9994 69.4159 43.0614 69.7402C43.2781 69.9718 43.5412 70.0954 43.7889 70.2189C43.8043 70.3116 43.8198 70.3888 43.8198 70.4814C43.9746 70.605 43.9746 70.605 44.4854 70.8521C44.764 71.1146 44.9343 71.5316 45.1974 71.8559C45.8475 72.3964 46.7298 73.1994 46.8072 73.2148C46.6988 72.6743 46.544 72.1184 46.0952 71.7941C45.8939 71.4543 45.3522 70.5278 45.0117 70.4506C44.5163 69.4159 43.2161 68.3349 42.4267 67.5936C41.5445 66.8369 41.5445 66.8369 41.4361 66.7906C41.0027 66.4508 40.461 66.142 40.3062 66.003C39.3775 65.6941 38.5571 65.1382 37.5665 64.9838C36.7461 64.6595 35.8483 64.6904 34.9661 64.6595C34.9351 64.6749 34.8887 64.6904 34.8577 64.7058C34.3934 64.6286 33.8052 64.8293 33.3873 64.6904C33.3873 64.7058 33.3873 64.7367 33.4027 64.7676C33.2944 64.8293 33.1706 64.7985 33.0622 64.783C32.7217 65.0301 32.3192 64.8602 31.9632 65.061C31.9323 64.9992 31.9323 64.9992 31.8549 64.9529C31.8084 65.0147 31.8084 65.0919 31.7465 65.1382C31.7156 65.1228 31.6691 65.1228 31.6382 65.1073C31.5298 65.2309 31.2667 65.2617 31.1119 65.2617C31.0964 65.2772 31.0964 65.3081 31.0809 65.3235C29.626 65.6015 28.0007 67.0222 26.8243 67.9488C26.7934 67.9334 26.7624 67.9334 26.7315 67.9334C26.8243 67.7635 26.8863 67.6245 27.0256 67.501C27.0101 67.0994 27.7376 65.9721 28.0162 65.6015V65.4779C28.0781 65.4162 28.14 65.3698 28.2019 65.3235C28.1865 65.3081 28.171 65.2926 28.171 65.2772C28.2484 65.0919 28.3412 64.9683 28.4651 64.8139C28.4032 64.5668 28.7901 64.119 28.8985 63.9028C28.8985 63.7638 28.9139 63.6402 28.9139 63.5167C29.27 63.177 29.3938 62.7291 29.6879 62.3739C29.8427 61.9415 30.0594 61.5555 30.2761 61.1539C30.338 60.7524 30.4773 60.3509 30.7714 60.1038C31.437 59.1309 31.7156 57.7102 32.3811 56.7682C32.5669 56.1968 32.8919 55.1621 33.2479 54.7297C33.4182 54.251 33.5575 53.7568 33.8052 53.3244C34.0374 52.5214 34.3779 51.7647 34.6255 50.9925C34.8422 50.6064 34.8577 49.8961 35.1363 49.5563C35.5078 48.3672 35.9722 47.07 36.2198 45.85C36.2972 45.6802 36.3746 45.4948 36.4675 45.325C36.452 45.3095 36.452 45.2941 36.4365 45.2786C36.6687 44.383 37.0402 43.4718 37.2259 42.5607C37.3498 42.2827 37.6439 41.4334 37.6439 41.1399C37.9534 39.9972 38.3868 38.8081 38.5881 37.6498C38.6964 37.4182 38.8667 36.6615 38.8976 36.6461C39.8263 33.156 40.6003 29.4806 40.8789 25.8515C41.2349 23.7204 41.5135 21.5584 42.0398 19.489C42.0862 19.1801 42.1481 18.0374 42.3184 17.8212C42.3803 15.7982 42.4113 13.7751 42.4113 11.7521C42.3339 10.8564 42.0553 9.9453 41.1885 9.68277C40.3836 9.63644 40.043 9.99162 39.5013 10.5167C39.4239 10.7329 39.1453 11.4278 38.9595 11.4278C38.975 11.4587 38.975 11.505 39.006 11.5514C38.9905 11.5668 38.975 11.5668 38.9441 11.5977C38.8357 12.7096 38.7119 13.8369 38.5726 14.9488C38.4952 15.2422 38.3404 15.6592 38.3404 15.9526C38.4023 15.9217 38.4023 15.9217 38.4797 15.7209H38.6035C38.65 15.8136 38.6809 15.9063 38.7274 15.9989C38.7583 17.188 38.6654 18.4389 38.2166 19.5353C38.1547 19.5971 38.0153 19.906 37.9999 20.0295C37.5046 20.9252 37.1176 21.8827 37.0247 22.9482C36.7925 23.1335 36.6378 26.917 36.6378 26.9788C36.6378 27.195 36.5604 28.9864 36.4675 29.0636C36.4365 29.2644 36.2044 31.3028 36.0031 31.4418C36.0031 31.6271 35.6007 33.7428 35.6007 33.8972C35.3066 34.4841 35.1673 35.3952 35.0589 36.0283C34.7958 36.8777 34.6565 37.8043 34.4243 38.6536C34.2231 40.167 33.7897 41.7731 33.4182 43.2402C33.3718 43.6417 33.1706 44.0432 33.186 44.4447C33.0622 44.8462 32.7526 46.4369 32.6133 46.5141C32.6288 46.5913 32.6288 46.5913 31.9942 48.7842C31.9632 48.7842 31.9168 48.7842 31.8858 48.7996C31.9323 48.8614 31.9323 48.8614 31.9323 49.0776C31.6846 49.4328 31.6691 50.452 31.3131 50.5601V50.6219C31.3286 50.6064 31.3441 50.6064 31.375 50.6064C31.3905 50.6991 31.3905 50.6991 31.2048 51.2705C31.1429 51.6257 30.9881 52.9383 30.8642 53.0464C30.7869 53.7105 30.5702 55.2393 30.1522 55.7335C30.1368 55.8261 29.951 56.3049 29.8581 56.3666C29.239 57.5094 28.8366 58.8375 28.527 60.1193H28.6199C28.6199 60.0112 28.8675 59.4243 28.9294 59.1927C29.1616 58.6985 29.3938 58.0345 29.5021 57.494C29.564 57.4631 29.564 57.4631 29.6105 57.355C29.7962 57.7411 29.595 58.4669 29.564 58.8838C29.3473 59.0691 29.0378 59.2236 28.9913 59.5633C28.7282 60.0266 28.7746 60.6598 28.5579 61.1385C28.527 61.1385 28.4805 61.1539 28.4341 61.1694C28.4496 61.1539 28.4496 61.1231 28.4651 61.1076C28.0936 60.9532 28.0317 62.6365 27.9852 62.9144C27.6292 63.424 27.2887 63.9491 26.9482 64.4742C26.8708 64.8293 26.716 65.1691 26.685 65.5243C26.5612 65.7405 26.5612 65.7405 26.5302 65.864C26.5457 65.8795 26.5457 65.9103 26.5767 65.9412C26.4838 66.1883 26.3909 66.4354 26.3135 66.6825C26.2826 66.6825 26.2516 66.6979 26.2207 66.7134C26.3755 67.2076 25.7099 67.9951 25.7254 68.5665C25.7408 68.582 25.7563 68.582 25.8028 68.6129C25.8492 68.582 25.8956 68.5511 25.9421 68.5356L25.973 68.5665C25.7563 68.9063 25.4777 69.0916 25.1062 69.107C25.0907 69.1379 25.1062 69.1688 25.1062 69.1997H25.1991C25.0907 69.4004 24.8586 69.524 24.6573 69.5394C24.6728 69.6166 24.6728 69.6166 24.6419 69.663C24.6264 69.6475 24.6109 69.6166 24.5799 69.6166C24.8276 69.1842 24.7812 68.582 25.1681 68.2113C25.23 68.2577 25.23 68.2577 25.3229 68.2422C25.1991 68.0723 25.5706 67.9334 25.6634 67.887C25.7408 67.3311 25.9266 66.806 25.9111 66.2038H25.7099C25.4467 66.7134 25.1836 67.2384 24.936 67.7635C24.7966 68.1805 24.2085 68.9217 24.2239 69.3078C24.0382 69.802 23.7441 70.7285 23.2333 70.883C22.9237 71.547 22.351 72.1029 21.9795 72.7361C21.4688 73.2303 21.0199 74.6819 21.9486 74.9599C21.9331 75.068 21.9176 75.1761 21.9022 75.2996C21.3449 75.8092 21.3449 75.8092 20.958 76.2108C20.9115 76.427 20.7413 76.5505 20.6174 76.7667ZM57.6886 75.5776H57.7196V75.5313H57.6886V75.5776ZM58.3078 75.5621C58.3078 75.5467 58.3078 75.5158 58.3232 75.5004C58.2923 75.5004 58.2923 75.5004 58.3078 75.5621ZM57.7505 75.3923H57.7815V75.3151H57.7505V75.3923ZM48.03 75.6548C48.1383 75.0834 47.4263 74.6819 47.1322 74.3885C47.2561 74.1105 46.6369 73.6318 46.4976 73.4619C46.4357 72.9523 46.1261 72.767 45.6927 72.6898C45.7546 73.1531 46.575 73.8943 46.8536 74.2341C47.318 74.6665 47.6895 75.068 48.03 75.6548ZM48.2312 74.6974C48.2622 74.6819 48.2931 74.6665 48.3396 74.6665C48.2931 74.5892 48.2622 74.5275 48.2312 74.4657H48.1693C48.1693 74.5429 48.1693 74.5429 48.2312 74.6974ZM47.9216 74.0796H47.9835C47.9526 73.9407 47.7823 73.9252 47.7823 73.7553H47.7204C47.7668 73.8789 47.8442 73.9715 47.9216 74.0796ZM23.3571 74.7128V74.651H23.3881V74.7128H23.3571ZM47.6895 73.7244C47.7049 73.709 47.7049 73.709 47.643 73.6009C47.643 73.6627 47.643 73.6627 47.6895 73.7244ZM52.3795 73.3847H52.4414V73.3538H52.3795V73.3847ZM56.4968 72.9832H56.5277V72.9369H56.4968V72.9832ZM46.6369 72.9523C46.6524 72.9369 46.6679 72.9369 46.6833 72.9214C46.606 72.7979 46.606 72.7979 46.5286 72.767C46.544 72.8596 46.544 72.8596 46.6369 72.9523ZM46.4666 72.7361C46.4976 72.5353 46.3583 72.3346 46.2345 72.1956C46.3119 72.3655 46.3893 72.5508 46.4666 72.7361ZM46.0952 72.1493H46.1261V72.0875H46.0952V72.1493ZM25.3074 72.0566V72.0103H25.3694V72.0566H25.3074ZM25.4932 71.9794V71.9022H25.5551V71.9794H25.4932ZM25.6634 71.8713C25.6634 71.825 25.6634 71.825 25.6634 71.8713V71.8713ZM22.769 71.4852V71.4389H22.8309V71.4852H22.769ZM43.4948 70.3116H43.5567V70.2344H43.4948C43.4793 70.2652 43.4948 70.2807 43.4948 70.3116ZM24.1001 70.1571C24.0846 70.1417 24.0846 70.1108 24.0692 70.0954C24.0692 70.0645 24.1001 70.0336 24.1156 70.0182H24.2549C24.193 70.0645 24.1465 70.1108 24.1001 70.1571ZM23.806 70.0645V69.9873H23.8679V70.0645H23.806ZM24.8895 69.4468V69.4004H24.9205V69.4468H24.8895ZM26.0349 68.5356V68.4893H26.1278V68.5356H26.0349ZM26.1588 68.4893V68.4275C26.2981 68.3503 26.2981 68.3503 26.5302 68.165C26.4374 68.304 26.2981 68.4121 26.1588 68.4893ZM25.5087 68.3967V68.3658H25.5706V68.3967H25.5087ZM25.9885 68.2731C26.0814 67.8716 26.3755 67.5936 26.5922 67.2848C26.685 67.2539 26.685 67.2539 26.716 67.2076C26.7005 67.1921 26.685 67.1612 26.6696 67.1458C26.7469 67.084 26.8243 67.0068 26.9172 66.945C26.9636 67.2848 26.4064 67.7172 26.2362 67.9797C26.2207 68.0724 26.2207 68.1496 26.2052 68.2577C26.1433 68.2422 26.0659 68.2577 25.9885 68.2731ZM42.2874 67.7017C42.3184 67.6245 42.241 67.5318 42.1791 67.501C42.1791 67.5782 42.1791 67.5782 42.2874 67.7017ZM26.7005 68.0723V67.9951H26.7315V68.0723H26.7005ZM25.6944 68.0569C25.6944 68.0415 25.7099 68.0106 25.7099 67.9951C25.7254 68.0106 25.7254 68.026 25.7563 68.0569H25.6944ZM26.8863 66.7906C26.9172 66.5898 26.9327 66.6053 27.072 66.5589V66.6362C26.9946 66.6207 26.9946 66.6207 26.9636 66.6516C26.9791 66.667 27.0101 66.667 27.041 66.6979C26.9791 66.7597 26.9791 66.7597 26.8863 66.7906ZM48.1229 64.5668H48.2157V64.4896C48.1383 64.5205 48.1383 64.5205 48.1229 64.5668ZM36.2508 64.6286V64.5977H36.3127V64.6286H36.2508ZM27.072 64.258V64.1807C27.0875 64.1962 27.103 64.1962 27.1184 64.2116C27.0875 64.2271 27.072 64.2271 27.072 64.258ZM27.6292 63.4395V63.3932H27.6602V63.4395H27.6292ZM29.5795 62.2813V62.204H29.6105V62.2813H29.5795ZM28.4032 60.6289C28.4341 60.4899 28.4805 60.3355 28.5115 60.2119H28.5734C28.5734 60.3663 28.4805 60.459 28.5115 60.6289H28.4032ZM50.7542 59.7795H50.7852V59.7332H50.7542V59.7795ZM45.8939 57.9727C45.9094 57.9573 45.9404 57.9418 45.9713 57.9264C45.9404 57.9109 45.9094 57.9109 45.8939 57.8955V57.9727ZM31.8549 57.1697C31.9013 57.0616 32.118 56.3975 32.3038 56.4902C32.2728 56.7527 32.0716 57.0616 31.8549 57.1697ZM31.6382 49.6026C31.6227 49.5872 31.6227 49.5563 31.6072 49.5409C31.6227 49.5254 31.6382 49.5254 31.6691 49.51C31.6537 49.5563 31.6537 49.5718 31.6382 49.6026ZM41.9469 39.4876C42.0553 39.1169 42.0553 38.9316 42.0088 38.5455C41.885 38.8698 41.9314 39.1324 41.9469 39.4876ZM35.5852 35.4415V35.3952H35.6162V35.4415H35.5852ZM43.4019 34.0053C43.4174 33.9899 43.4328 33.9899 43.4638 33.9744C43.4793 33.8972 43.4793 33.8972 43.4174 33.8355C43.4174 33.8818 43.4019 33.9281 43.4019 34.0053ZM42.1172 27.9363C42.1481 27.9208 42.1791 27.8899 42.2255 27.8745C42.241 27.7818 42.241 27.7046 42.241 27.612C42.21 27.5965 42.1791 27.5965 42.1481 27.5965C42.1326 27.5502 42.1326 27.5502 42.3958 26.6545C42.4267 26.392 42.4422 26.1294 42.4732 25.8669C42.3029 25.8669 42.3029 25.8669 42.2565 25.9132C42.2565 26.114 42.2565 26.114 42.3029 26.392C41.9933 26.9016 42.0707 27.3649 42.1172 27.9363ZM43.2781 27.5965C43.309 27.5811 43.34 27.5656 43.3864 27.5656C43.4019 27.3803 43.4328 27.195 43.4483 27.0097C43.4483 25.8206 43.5257 24.6006 43.5412 23.3961C43.0149 23.4115 43.2007 23.9674 43.2471 24.3535C43.2626 24.8631 43.2626 24.8631 43.2007 25.4654C43.0923 25.6044 42.9994 25.7588 42.8911 25.8978C42.9066 26.4846 42.9994 27.0869 43.2781 27.5965ZM41.885 23.7667C41.885 23.5814 41.885 23.5814 41.9159 23.5814C41.9314 23.6431 41.9314 23.7049 41.9624 23.7667H41.885ZM41.9469 23.5196C41.9314 23.4269 41.9159 23.3497 41.9005 23.2571H41.9933C41.9933 23.4578 41.9933 23.4578 41.9469 23.5196ZM43.4638 23.3188C43.4793 23.288 43.4793 23.2571 43.4948 23.2262C43.5102 23.2416 43.5102 23.288 43.5412 23.3188H43.4638ZM41.9469 23.1799C41.9469 23.01 41.9469 22.8247 41.9624 22.6702C41.9779 22.6548 42.0088 22.6548 42.0398 22.6394C42.0243 22.6857 42.0243 22.732 42.0243 22.7938C42.0553 22.7938 42.1017 22.8092 42.1481 22.8092C42.1017 22.9173 42.0707 23.0254 42.0243 23.149C41.9779 23.1644 41.9624 23.1799 41.9469 23.1799ZM43.4638 23.1026C43.4019 22.593 43.2161 21.9753 43.3245 21.4657H43.3864C43.4019 21.2341 43.5412 20.7553 43.7269 20.6935C43.7115 20.8016 43.6495 20.8634 43.5876 21.1723C43.5567 22.5776 43.5567 22.5776 43.5257 23.0718C43.4948 23.0718 43.4793 23.0872 43.4638 23.1026ZM42.1946 22.7783L42.241 22.6394C42.272 22.6239 42.3184 22.6239 42.3493 22.6239C42.3339 22.6394 42.3339 22.6702 42.3339 22.7011C42.2874 22.732 42.241 22.7475 42.1946 22.7783ZM42.1326 21.8672C42.1791 21.6356 42.241 21.4194 42.2565 21.1877C42.3958 21.1877 42.3648 21.4657 42.3493 21.5738C42.2874 21.6665 42.21 21.7591 42.1326 21.8672ZM43.7269 20.6163V20.57H43.7579V20.6163H43.7269ZM43.8817 20.2303V20.1994H43.9436V20.2303H43.8817ZM43.3864 18.1609C43.3709 17.6667 43.4948 16.8792 43.8817 16.5857C43.8817 16.4313 43.8972 16.2769 43.9127 16.1225C44.0365 16.0607 44.0984 16.0298 44.2377 16.0452C44.2532 15.9989 44.2532 15.968 44.2687 15.9371H44.3306V16.0607C44.2532 16.107 43.7579 17.3733 43.7115 17.5432C43.6805 17.5586 43.6495 17.5741 43.6341 17.5895C43.665 17.744 43.6805 17.8521 43.6495 18.0219C43.5567 18.0683 43.4638 18.1146 43.3864 18.1609ZM38.2785 16.1225V16.0607C38.294 16.0607 38.3094 16.0761 38.3249 16.0761C38.3094 16.0916 38.2785 16.107 38.2785 16.1225ZM44.2687 15.8754V15.7209C44.2842 15.7364 44.3151 15.7364 44.3461 15.7518V15.8445C44.2996 15.8599 44.2842 15.8599 44.2687 15.8754Z" fill="white"/>
<path d="M46.3735 91.5134L46.358 92.5018H46.6986C48.1381 92.5018 49.5002 92.3782 50.6301 92.2547L50.5218 91.2818C49.3299 91.4053 47.9059 91.5289 46.3735 91.5134ZM77.6402 90.3089L77.6247 90.278C76.9437 89.3977 76.015 88.9345 75.1172 88.4866C74.7457 88.3013 74.3433 88.116 73.9873 87.8843L73.6622 87.699C73.3681 87.5292 73.1669 87.421 73.136 87.2666C73.0276 86.8805 73.105 86.5254 73.3991 86.0621C73.6158 85.7995 73.848 85.537 74.1575 85.3671C74.3897 85.259 74.6219 85.1355 74.8386 85.0892C75.272 84.9965 75.6125 84.9347 75.9066 85.0737C75.9221 85.0892 75.9376 85.1201 75.9685 85.1355C76.015 85.1973 76.0769 85.259 76.1388 85.3208L76.8199 84.6104L76.727 84.5178C76.6341 84.4097 76.5103 84.2553 76.2936 84.178C75.6899 83.9155 75.0863 84.0391 74.6529 84.1317C74.3123 84.1935 74.0028 84.3479 73.7087 84.5023C73.2288 84.7649 72.9038 85.1509 72.6406 85.4444L72.6097 85.4907C72.3001 85.9385 71.9286 86.6489 72.1918 87.5446C72.3466 88.1005 72.8264 88.3631 73.1979 88.5638C73.2907 88.6102 73.3836 88.6565 73.4765 88.7183C73.8789 88.9653 74.2814 89.1661 74.6838 89.3669C75.5197 89.7684 76.2936 90.1544 76.8508 90.8494C77.0211 91.1119 77.083 91.3435 77.052 91.5443C77.0211 91.6061 76.9127 91.6833 76.8044 91.7605C76.7425 91.7914 76.696 91.8377 76.6496 91.8686C75.8602 92.2856 74.9934 92.7025 73.9563 92.9342C73.8015 92.965 73.4146 93.0577 73.2753 93.0114C72.9812 92.5635 73.0121 91.9304 73.3991 91.1428L72.5168 90.7258C72.3001 91.1737 72.1763 91.6061 72.1299 92.0076C72.0525 91.9767 71.9905 91.9458 71.9132 91.9149C71.294 91.5443 70.8916 91.22 70.7987 90.7567V90.7258C70.6284 90.0618 70.6594 89.3977 70.7677 88.78L71.0464 88.1314C71.1547 87.8226 71.2476 87.5292 71.3404 87.2357C71.4488 86.9114 71.5417 86.5871 71.65 86.2783C71.7584 86.0621 71.8512 85.8459 71.9286 85.6142L71.0154 85.259C70.9225 85.4752 70.8297 85.676 70.7523 85.8922C70.7058 85.9694 70.6749 86.0621 70.6284 86.1393C70.5046 86.3864 70.3653 86.6335 70.2569 86.9114L70.2415 86.9423C70.1796 87.1585 70.1176 87.3747 70.0712 87.5755C70.0093 87.7762 69.9629 87.977 69.9009 88.1932L69.8855 88.2395C69.87 88.3322 69.8545 88.4094 69.839 88.502C69.2354 89.7066 68.2912 90.7104 67.0064 91.4825C66.8981 91.5443 66.7588 91.5443 66.7124 91.5134C66.6969 91.5134 66.6814 91.498 66.6814 91.4671C66.5421 90.4324 66.5576 89.4286 66.573 88.3785C66.5885 87.8071 66.5885 87.2049 66.573 86.618L65.5824 86.6489C65.5979 87.2203 65.5979 87.7917 65.5824 88.3476C65.3348 87.7145 64.6847 87.2512 63.8179 87.0813C63.2297 86.9423 62.5796 86.9269 61.8211 87.035C61.3568 87.0813 60.9853 87.2357 60.6293 87.4056C60.5054 87.4674 60.3816 87.5137 60.2423 87.5755L60.2733 87.6373C59.8553 87.7917 59.4684 88.0233 59.1124 88.255C58.9576 88.3476 58.8338 88.4557 58.7099 88.5638C58.8647 88.3322 59.004 88.116 59.1588 87.8998C59.6077 87.2357 60.0566 86.5562 60.5364 85.8304L60.6138 85.7069C61.1091 84.9347 61.5889 84.1935 61.9759 83.3287C62.0688 83.0816 62.0843 82.8654 61.9914 82.6801C61.914 82.4948 61.5889 82.1859 61.5116 82.2631C61.2949 82.4639 60.2733 84.4097 59.778 85.1973L59.7006 85.3208C59.2362 86.0466 58.7718 86.7107 58.323 87.3747C57.8586 88.0697 57.3788 88.78 56.8835 89.5367C56.4036 90.2317 56.0321 90.9575 55.6761 91.6524C55.5059 91.9767 55.3356 92.3165 55.1653 92.6408C55.1034 92.5327 55.0415 92.4091 54.9641 92.301C54.4843 91.5906 54.0199 90.942 53.5246 90.2625C53.277 89.9228 53.0293 89.5831 52.7816 89.2279C52.0696 88.2086 51.466 87.2203 50.8778 86.2628C50.6611 85.8922 50.4289 85.537 50.1967 85.1664L49.3144 85.5833C49.4073 85.8459 49.5466 86.1084 49.6859 86.3555C49.7633 86.5099 49.8562 86.6489 49.9181 86.7879L50.011 86.7416C50.0265 86.757 50.0265 86.7725 50.0419 86.7725C50.6301 87.7454 51.2493 88.7491 51.9768 89.7993C52.2399 90.1544 52.4875 90.5096 52.7352 90.8494C53.2305 91.5289 53.6949 92.162 54.1592 92.8569C54.3914 93.1967 54.4843 93.4901 54.4378 93.7218L54.2366 94.6947L55.1344 94.2468C55.2892 94.1696 55.3975 94.0615 55.5059 93.9534L55.5678 93.8916L55.5987 93.8453C55.9702 93.2585 56.2798 92.6562 56.5739 92.0848C56.8835 91.4671 57.1776 90.8957 57.549 90.3243C57.3323 90.9884 57.3169 91.7451 57.4716 92.5635C57.6264 93.4438 58.5242 93.9071 58.8338 94.0615C59.2207 94.2468 59.6541 94.3395 60.1649 94.3395C60.4435 94.3395 60.7376 94.3086 61.0627 94.2468C62.4712 94.0152 63.4464 93.243 64.2822 92.4554C64.9788 91.8686 65.4122 91.2509 65.6134 90.5868C65.6289 90.942 65.6598 91.2972 65.7062 91.6524C65.7682 92.0076 65.9694 92.2856 66.2944 92.44C66.6504 92.6099 67.1148 92.579 67.5172 92.3628C68.3995 91.8377 69.158 91.1891 69.7771 90.4479C69.8081 90.6332 69.839 90.8185 69.8855 91.0038C70.0557 91.8532 70.7368 92.3782 71.4488 92.7952C71.6965 92.9496 71.9751 93.0423 72.2537 93.0732C72.3156 93.2585 72.393 93.4438 72.5168 93.6137C72.7335 93.9534 73.0895 94.0461 73.4455 94.0461C73.7396 94.0461 74.0337 93.9843 74.2504 93.9225C75.3958 93.66 76.34 93.2121 77.2068 92.7488L77.2842 92.7025C77.3307 92.6716 77.3771 92.6407 77.4235 92.5944C77.6402 92.44 77.9498 92.2392 78.0736 91.8377L78.0891 91.8068C78.0891 91.3127 77.9653 90.803 77.6402 90.3089ZM64.6073 90.1853C64.468 90.7104 64.1429 91.1737 63.5547 91.6524L63.5238 91.6833C62.7963 92.3782 61.9604 93.0423 60.815 93.243C60.1185 93.3666 59.5922 93.3357 59.1898 93.1349C58.679 92.8724 58.4158 92.6099 58.3539 92.3319C58.1682 91.359 58.2765 90.556 58.7099 89.9228C58.9421 89.5985 59.1743 89.3051 59.5613 89.0426C60.0101 88.7491 60.3971 88.5329 60.815 88.4248C61.0627 88.3476 61.3413 88.3322 61.6354 88.3322H62.0069C62.27 88.3322 62.5486 88.3476 62.8272 88.3322L62.7963 87.9307C63.0439 87.9461 63.2761 87.9616 63.5083 88.0233C64.0655 88.1314 64.468 88.4094 64.5763 88.7183C64.7621 89.197 64.7621 89.6757 64.6073 90.1853Z" fill="white"/>
<path d="M41.1418 96.843L40.9561 96.8121C40.337 96.6886 39.8107 96.5805 39.3618 96.179C39.3773 95.9165 39.563 95.7157 39.8416 95.4223L39.95 95.3142L39.9809 95.2833C41.2038 93.7545 42.5659 92.6734 44.0209 91.5152C44.4852 91.1446 44.9651 90.774 45.4294 90.3879C45.6461 90.218 45.8319 90.0482 46.0331 89.8783C46.3891 89.554 46.7296 89.2451 47.1011 89.0753L46.8999 88.1332C46.6677 88.1332 46.3581 88.1332 46.0486 88.2568C44.7793 88.5502 43.6958 88.8745 42.4266 89.2606L42.2873 89.3069C41.4514 89.5231 40.5537 89.7393 39.6095 89.8474L39.7178 90.8203C40.7239 90.7122 41.6681 90.4806 42.5504 90.2489L42.7052 90.2026C43.4636 89.9709 44.1602 89.7547 44.8722 89.5694C44.8567 89.5849 44.8257 89.6003 44.7948 89.6312C44.3304 90.0173 43.8506 90.4033 43.4017 90.7585C42.0706 91.8241 40.7858 92.8279 39.6095 94.2023L39.8881 93.8317L39.0987 93.2448C38.7427 93.7236 38.3402 94.2177 37.8759 94.6656C37.3341 95.1443 36.6066 95.7157 35.7243 95.8856C35.5231 95.9165 34.4861 96.0709 34.2229 95.4223C34.13 95.1598 34.161 94.8509 34.192 94.4957L34.2074 94.3567C34.2384 93.9552 34.2848 93.5691 34.3622 93.2294C34.3932 93.2448 34.4241 93.2757 34.4551 93.2912C34.9659 93.5537 35.5231 93.461 36.0184 93.3529C36.715 93.1831 37.3341 92.797 37.8913 92.1638C38.4021 91.577 38.5879 90.774 38.4641 89.8011C38.4486 89.5077 38.2473 89.2606 37.9378 89.1525L37.8913 89.137C36.6221 88.8127 35.2909 89.4459 34.3313 90.8203C33.7276 91.6697 33.3871 92.6271 33.2632 93.878C33.2632 93.6155 33.2787 93.3375 33.2942 93.075C33.3097 92.5962 33.3406 92.1021 33.3871 91.5924L33.449 91.4535C33.5264 91.1909 33.5573 90.9284 33.5728 90.7122C33.5883 90.5114 33.6038 90.3261 33.6657 90.1717L33.9443 89.3996H33.6812C33.9443 87.7008 34.0062 86.3264 33.8824 84.952V84.8748C33.8669 84.6277 33.8205 84.2725 33.5573 83.9791L33.5109 83.9328C33.2942 83.7629 32.9227 83.7783 32.7215 83.9637L32.6596 84.0254C32.5048 84.2262 32.4893 84.4424 32.4738 84.5814C32.4738 84.6123 32.4738 84.6431 32.4584 84.674C32.4119 84.8285 32.4119 84.952 32.4274 85.0292L32.9072 85.1373C33.0156 86.4654 32.9382 87.8244 32.6596 89.554L32.4119 89.7084L32.4738 89.9092L32.4584 89.9555L32.4429 89.9401C32.2726 89.8165 32.0404 89.6621 31.7463 89.6466C31.4523 89.6158 31.1736 89.6158 30.8176 89.6466H30.7867C30.57 89.6775 30.3842 89.7702 30.1985 89.832L30.1675 89.8474C29.6103 90.1408 28.9912 90.5114 28.5887 91.16L28.4958 91.299C28.2791 91.6233 28.0779 91.9322 27.9386 92.3491C27.6445 93.3066 27.5052 94.295 27.5517 95.3451C27.1956 95.6848 26.7777 95.9473 26.2824 96.1172C26.0657 96.1944 25.8335 96.1944 25.5549 96.179H25.2608C24.9977 96.1635 24.7655 96.0246 24.6726 95.8238C24.5952 95.6539 24.5333 95.4686 24.5333 95.3296V95.2987C24.5024 94.7737 24.5024 94.2641 24.5024 93.7236C24.5024 92.9978 24.5024 92.241 24.425 91.4689C24.425 91.16 24.3012 90.9284 24.0845 90.8049C23.713 90.5578 23.357 90.8049 23.2177 90.913L23.1248 90.9747C22.8307 91.1909 22.5211 91.4071 22.227 91.716L22.1342 91.8241C21.2828 92.7507 20.4934 93.6463 19.7814 94.7119C19.7969 94.5884 19.8278 94.4494 19.8588 94.3258C19.8898 94.1251 19.9362 93.9398 19.9672 93.7236V93.6927C19.9826 93.5228 19.9981 93.3529 19.9981 93.1985C20.0136 92.9669 20.0291 92.7352 20.06 92.519L19.0849 92.3646C19.0384 92.6426 19.023 92.8896 19.0075 93.1367C18.992 93.2912 18.992 93.4302 18.9765 93.5846C18.9456 93.7699 18.9146 93.9552 18.8682 94.1405C18.8063 94.4339 18.7598 94.7428 18.7134 95.0825C18.6824 95.3914 18.667 95.6848 18.6515 95.9628L18.5741 95.9165C18.3264 96.4261 17.8775 96.8121 17.2274 97.2754C16.4071 97.8777 15.6022 98.2638 14.7044 98.4645C14.5961 98.48 14.4877 98.4954 14.3949 98.5109L13.7757 98.1557L12.8006 97.5997V97.5843C12.6148 96.7813 12.878 95.9628 13.1411 95.2833V95.2679C13.2495 95.3605 13.3888 95.4223 13.5281 95.4841C13.8841 95.6385 14.2865 95.6694 14.7509 95.5613C15.8344 95.2987 16.5619 94.5112 17.0572 93.8471C17.3358 93.4765 17.4751 93.1367 17.5061 92.7507V92.6117C17.5215 92.4572 17.537 92.241 17.4441 92.0094C17.1501 91.299 16.3142 91.4071 15.9272 91.4535H15.8808C15.2926 91.5152 14.8283 91.8086 14.4103 92.1329C13.915 92.519 13.4971 92.9205 13.1411 93.3684L12.7851 93.1985C12.6613 93.4765 12.5994 93.7853 12.6148 94.1251C12.46 94.3876 12.3362 94.6501 12.2279 94.9281C11.9802 95.5304 11.7635 96.2408 11.748 96.9975C11.1289 96.6423 10.5252 96.2871 9.90608 95.901C9.37981 95.5767 8.83806 95.3142 8.32727 95.0671C8.18796 95.0053 8.04865 94.9281 7.92483 94.8663C9.22503 94.4185 10.5717 93.7544 11.8409 92.6271C12.166 92.3491 12.6613 91.9322 12.7541 91.1292C12.8161 90.774 12.8006 90.4033 12.7077 90.079C12.5994 89.7239 12.4136 89.5231 12.2433 89.3687L12.2279 89.3532C11.5778 88.8127 10.8503 88.5193 9.92156 88.3958C8.74519 88.2722 7.61525 88.334 6.57819 88.4112C5.95905 88.4421 5.3399 88.5502 4.70528 88.7201C4.70528 88.6583 4.72076 88.612 4.72076 88.5502L3.74561 88.4421C3.73013 88.6274 3.69918 88.8282 3.6837 89.0444C3.62178 89.0753 3.54439 89.0907 3.48248 89.1216C3.29673 89.1834 3.11099 89.2297 2.90977 89.2915C2.63115 89.3687 2.35254 89.4304 2.04297 89.5694L2.44541 90.4651C2.66211 90.3725 2.89429 90.3107 3.14195 90.2489C3.29673 90.218 3.45152 90.1717 3.6063 90.1254V90.4188C3.40508 93.3529 3.42056 96.3334 3.65274 99.283V99.3293C3.6837 99.4838 3.6837 99.7154 3.6837 99.9625C3.6837 100.24 3.6837 100.534 3.73013 100.827L4.70528 100.688C4.67433 100.472 4.67433 100.21 4.67433 99.9625C4.67433 99.6845 4.67433 99.422 4.62789 99.1749C4.41119 96.2716 4.39571 93.3375 4.58145 90.4651V90.4342C4.58145 90.2335 4.58145 90.0018 4.59693 89.7856C5.30895 89.554 5.95905 89.4304 6.62463 89.3996C7.63073 89.3223 8.69876 89.2606 9.79773 89.3687C10.5407 89.4613 11.0825 89.6775 11.5778 90.0945C11.6706 90.1871 11.7326 90.2489 11.7635 90.357C11.8099 90.5423 11.8254 90.774 11.779 90.9902V91.0211C11.7326 91.4226 11.5313 91.6233 11.1908 91.9013C9.51912 93.3993 7.63073 94.0015 5.99 94.4494L6.25314 95.3914C6.37697 95.3605 6.48532 95.3296 6.60915 95.2987C7.04255 95.5458 7.47595 95.762 7.89387 95.9628C8.38918 96.2099 8.91545 96.4724 9.37981 96.7504C10.2621 97.3218 11.1598 97.8314 12.0266 98.3101C12.3207 98.8352 12.847 99.2367 13.5126 99.4374C13.7138 99.4838 13.915 99.5147 14.1472 99.5147C14.9521 99.9625 15.757 100.426 16.5928 100.858C16.6702 100.905 16.7476 100.935 16.825 100.982C17.1501 101.167 17.5215 101.368 17.9395 101.399L18.0014 100.426C17.8002 100.41 17.5525 100.271 17.2894 100.132C17.1965 100.086 17.1191 100.04 17.0417 99.9934C16.5773 99.7463 16.113 99.4838 15.6486 99.2212C16.3916 98.9741 17.1036 98.6035 17.8002 98.0785C18.0323 97.924 18.2645 97.7387 18.4812 97.5534V98.0321L19.1313 97.8159C19.4564 97.7078 19.5647 97.4607 19.5957 97.3526L19.6111 97.3372C19.7814 97.0283 19.9052 96.704 20.0291 96.4106C20.1529 96.0709 20.2767 95.7466 20.4779 95.4532C21.1745 94.3567 21.9948 93.4456 22.8616 92.4881L22.9545 92.38C23.1093 92.2102 23.295 92.0712 23.4808 91.9322C23.5272 92.5345 23.5272 93.1367 23.5272 93.739C23.5272 94.2641 23.5272 94.82 23.5582 95.3605C23.5582 95.6848 23.6665 95.9782 23.7904 96.2408C24.0535 96.7813 24.6107 97.1519 25.2763 97.1673H25.5549C25.88 97.1828 26.2515 97.1828 26.6229 97.0592C27.0254 96.9357 27.3969 96.7504 27.7219 96.5187C27.8767 96.9357 28.2482 97.2909 28.7745 97.5225C28.9757 97.5997 29.1769 97.6461 29.4091 97.6461C29.6103 97.6461 29.8425 97.6152 30.0592 97.538C31.0808 97.1982 31.638 96.318 32.0714 95.5922C32.1333 95.4995 32.1797 95.4068 32.2262 95.2987C32.2417 95.4532 32.2571 95.5922 32.2881 95.7466L32.3345 96.0246C32.3655 96.2253 32.3964 96.4415 32.4429 96.6732C32.4738 96.7967 32.4893 96.9357 32.5048 97.0901C32.5358 97.2909 32.5512 97.5225 32.6286 97.7696L33.7586 97.5843V97.5225H33.3716L33.7276 97.4144C33.6812 97.2754 33.6657 97.1364 33.6502 96.9666C33.6347 96.7967 33.6038 96.6114 33.5573 96.4261C33.5264 96.318 33.5109 96.2099 33.4954 96.1018C33.836 96.6423 34.4861 96.9511 35.2755 96.9511C35.4767 96.9511 35.7089 96.9357 35.9256 96.8894C37.0555 96.6886 37.9223 96.0091 38.5724 95.4377C38.6498 95.3605 38.7117 95.2987 38.7736 95.2215C38.526 95.5458 38.3093 95.9782 38.4021 96.5496L38.4176 96.704L38.526 96.8121C39.207 97.538 40.0274 97.7078 40.7704 97.8468L40.9406 97.8777C42.0086 98.1248 43.0767 98.3101 44.0983 98.48C45.4294 98.6962 46.6987 98.9124 47.9834 99.283L48.262 98.341C46.9154 97.9549 45.5687 97.7233 44.253 97.5071C43.2315 97.26 42.1944 97.0901 41.1418 96.843ZM35.1671 91.3608C35.4302 90.9902 36.3435 89.832 37.5199 90.0327C37.5818 90.6659 37.4579 91.16 37.1638 91.5152C36.7459 91.994 36.3125 92.2719 35.8172 92.3955C35.5076 92.4572 35.1671 92.519 34.9504 92.4264C34.9349 92.4109 34.8885 92.3337 34.8575 92.2874C34.8266 92.2256 34.7801 92.1638 34.7337 92.1021C34.873 91.8395 35.0123 91.5924 35.1671 91.3608ZM14.9831 92.8588C15.3391 92.5808 15.6177 92.4109 15.9582 92.38L16.0201 92.3646C16.1439 92.3491 16.3916 92.3183 16.5 92.3337V92.4727C16.5 92.5345 16.5 92.5808 16.4845 92.6426C16.469 92.8124 16.3916 92.9823 16.2368 93.1831C15.8034 93.7545 15.2617 94.3567 14.4877 94.542C14.2401 94.6038 14.0389 94.5884 13.8686 94.5112C13.7293 94.4648 13.6209 94.3567 13.6055 94.2949C13.946 93.7853 14.4103 93.3066 14.9831 92.8588ZM31.1891 95.0362C30.8022 95.6694 30.3842 96.3334 29.7187 96.5496C29.471 96.6268 29.2543 96.6268 29.0995 96.5651C28.9447 96.5033 28.5887 96.318 28.5578 96.0246C28.4185 94.8046 28.5113 93.6927 28.8519 92.6117C28.9447 92.3337 29.0995 92.1021 29.3007 91.8086L29.3936 91.6542C29.6722 91.2064 30.1366 90.9284 30.5855 90.6968C30.6938 90.6504 30.8176 90.6041 30.9105 90.5887C31.1891 90.5578 31.4058 90.5732 31.6225 90.5887H31.669C31.669 90.5887 31.7154 90.6041 31.7928 90.6659C31.9011 90.7585 32.0095 90.8821 32.0714 91.0056C32.1024 91.0674 32.1178 91.1755 32.1178 91.3145C32.1178 91.3762 32.1178 91.4535 32.1333 91.5152L32.2262 91.4998C32.2107 91.7469 32.1952 91.9785 32.1797 92.2102C32.025 93.1676 31.7309 94.1251 31.1891 95.0362Z" fill="white"/>
</svg>
